<?xml version="1.0" encoding="UTF-8" standalone="no"?>
<!DOCTYPE svg PUBLIC "-//W3C//DTD SVG 1.1//EN"
 "http://www.w3.org/Graphics/SVG/1.1/DTD/svg11.dtd">
<!-- Generated by graphviz version 2.43.0 (0)
 -->
<!-- Title: draw Pages: 1 -->
<svg width="432pt" height="444pt"
 viewBox="0.00 0.00 432.00 444.00" xmlns="http://www.w3.org/2000/svg" xmlns:xlink="http://www.w3.org/1999/xlink">
<g id="graph0" class="graph" transform="scale(1 1) rotate(0) translate(4 440)">
<title>draw</title>
<polygon fill="white" stroke="transparent" points="-4,4 -4,-440 428,-440 428,4 -4,4"/>
<!-- import__column&#45;&gt;import__import -->
<g id="edge1" class="edge">
<title>import__column:column_import_id&#45;&gt;import__import:column_id</title>
<path fill="none" stroke="black" d="M258,-381.5C283.32,-381.5 285.79,-175.91 265.42,-135.75"/>
<polygon fill="black" stroke="black" points="267.75,-133.15 258,-129 263.04,-138.32 267.75,-133.15"/>
<text text-anchor="middle" x="350" y="-185.8" font-family="Times,serif" font-size="14.00">on delete: CASCADE</text>
</g>
<!-- import__column -->
<g id="node1" class="node">
<title>import__column</title>
<polygon fill="#fcaf3e" stroke="transparent" points="75,-409.5 75,-430.5 257,-430.5 257,-409.5 75,-409.5"/>
<polygon fill="none" stroke="black" points="75,-409.5 75,-430.5 257,-430.5 257,-409.5 75,-409.5"/>
<text text-anchor="start" x="110.5" y="-416.3" font-family="Helvetica,sans-Serif" font-size="14.00" fill="#2e3436">import__column</text>
<polygon fill="#eeeeec" stroke="transparent" points="75,-390.5 75,-409.5 174,-409.5 174,-390.5 75,-390.5"/>
<text text-anchor="start" x="77" y="-396.3" font-family="Helvetica,sans-Serif" font-size="14.00" fill="#2e3436">id</text>
<polygon fill="#eeeeec" stroke="transparent" points="174,-390.5 174,-409.5 240,-409.5 240,-390.5 174,-390.5"/>
<text text-anchor="start" x="176" y="-396.3" font-family="Helvetica,sans-Serif" font-size="14.00" fill="#2e3436">integer</text>
<polygon fill="#eeeeec" stroke="transparent" points="240,-390.5 240,-409.5 257,-409.5 257,-390.5 240,-390.5"/>
<text text-anchor="start" x="242" y="-396.3" font-family="Times,serif" font-size="14.00">✷</text>
<polygon fill="#eeeeec" stroke="transparent" points="75,-371.5 75,-390.5 174,-390.5 174,-371.5 75,-371.5"/>
<text text-anchor="start" x="77" y="-377.3" font-family="Helvetica,sans-Serif" font-size="14.00" fill="#2e3436">import_id</text>
<polygon fill="#eeeeec" stroke="transparent" points="174,-371.5 174,-390.5 240,-390.5 240,-371.5 174,-371.5"/>
<text text-anchor="start" x="176" y="-377.3" font-family="Helvetica,sans-Serif" font-size="14.00" fill="#2e3436">integer</text>
<polygon fill="#eeeeec" stroke="transparent" points="240,-371.5 240,-390.5 257,-390.5 257,-371.5 240,-371.5"/>
<polygon fill="#eeeeec" stroke="transparent" points="75,-352.5 75,-371.5 174,-371.5 174,-352.5 75,-352.5"/>
<text text-anchor="start" x="77" y="-358.3" font-family="Helvetica,sans-Serif" font-size="14.00" fill="#2e3436">header_name</text>
<polygon fill="#eeeeec" stroke="transparent" points="174,-352.5 174,-371.5 240,-371.5 240,-352.5 174,-352.5"/>
<text text-anchor="start" x="176" y="-358.3" font-family="Helvetica,sans-Serif" font-size="14.00" fill="#2e3436">string</text>
<polygon fill="#eeeeec" stroke="transparent" points="240,-352.5 240,-371.5 257,-371.5 257,-352.5 240,-352.5"/>
<polygon fill="#eeeeec" stroke="transparent" points="75,-333.5 75,-352.5 174,-352.5 174,-333.5 75,-333.5"/>
<text text-anchor="start" x="77" y="-339.3" font-family="Helvetica,sans-Serif" font-size="14.00" fill="#2e3436">sample</text>
<polygon fill="#eeeeec" stroke="transparent" points="174,-333.5 174,-352.5 240,-352.5 240,-333.5 174,-333.5"/>
<text text-anchor="start" x="176" y="-339.3" font-family="Helvetica,sans-Serif" font-size="14.00" fill="#2e3436">text</text>
<polygon fill="#eeeeec" stroke="transparent" points="240,-333.5 240,-352.5 257,-352.5 257,-333.5 240,-333.5"/>
<polygon fill="#eeeeec" stroke="transparent" points="75,-314.5 75,-333.5 174,-333.5 174,-314.5 75,-314.5"/>
<text text-anchor="start" x="77" y="-320.3" font-family="Helvetica,sans-Serif" font-size="14.00" fill="#2e3436">is_identifier</text>
<polygon fill="#eeeeec" stroke="transparent" points="174,-314.5 174,-333.5 240,-333.5 240,-314.5 174,-314.5"/>
<text text-anchor="start" x="176" y="-320.3" font-family="Helvetica,sans-Serif" font-size="14.00" fill="#2e3436">boolean</text>
<polygon fill="#eeeeec" stroke="transparent" points="240,-314.5 240,-333.5 257,-333.5 257,-314.5 240,-314.5"/>
<polygon fill="#eeeeec" stroke="transparent" points="75,-295.5 75,-314.5 174,-314.5 174,-295.5 75,-295.5"/>
<text text-anchor="start" x="77" y="-301.3" font-family="Helvetica,sans-Serif" font-size="14.00" fill="#2e3436">is_ignored</text>
<polygon fill="#eeeeec" stroke="transparent" points="174,-295.5 174,-314.5 240,-314.5 240,-295.5 174,-295.5"/>
<text text-anchor="start" x="176" y="-301.3" font-family="Helvetica,sans-Serif" font-size="14.00" fill="#2e3436">boolean</text>
<polygon fill="#eeeeec" stroke="transparent" points="240,-295.5 240,-314.5 257,-314.5 257,-295.5 240,-295.5"/>
<polygon fill="#eeeeec" stroke="transparent" points="75,-276.5 75,-295.5 174,-295.5 174,-276.5 75,-276.5"/>
<text text-anchor="start" x="77" y="-282.3" font-family="Helvetica,sans-Serif" font-size="14.00" fill="#2e3436">mapped_to</text>
<polygon fill="#eeeeec" stroke="transparent" points="174,-276.5 174,-295.5 240,-295.5 240,-276.5 174,-276.5"/>
<text text-anchor="start" x="176" y="-282.3" font-family="Helvetica,sans-Serif" font-size="14.00" fill="#2e3436">string</text>
<polygon fill="#eeeeec" stroke="transparent" points="240,-276.5 240,-295.5 257,-295.5 257,-276.5 240,-276.5"/>
<polygon fill="#eeeeec" stroke="transparent" points="75,-257.5 75,-276.5 174,-276.5 174,-257.5 75,-257.5"/>
<text text-anchor="start" x="77" y="-263.3" font-family="Helvetica,sans-Serif" font-size="14.00" fill="#2e3436">is_date</text>
<polygon fill="#eeeeec" stroke="transparent" points="174,-257.5 174,-276.5 240,-276.5 240,-257.5 174,-257.5"/>
<text text-anchor="start" x="176" y="-263.3" font-family="Helvetica,sans-Serif" font-size="14.00" fill="#2e3436">boolean</text>
<polygon fill="#eeeeec" stroke="transparent" points="240,-257.5 240,-276.5 257,-276.5 257,-257.5 240,-257.5"/>
<polygon fill="#eeeeec" stroke="transparent" points="75,-238.5 75,-257.5 174,-257.5 174,-238.5 75,-238.5"/>
<text text-anchor="start" x="77" y="-244.3" font-family="Helvetica,sans-Serif" font-size="14.00" fill="#2e3436">created_at</text>
<polygon fill="#eeeeec" stroke="transparent" points="174,-238.5 174,-257.5 240,-257.5 240,-238.5 174,-238.5"/>
<text text-anchor="start" x="176" y="-244.3" font-family="Helvetica,sans-Serif" font-size="14.00" fill="#2e3436">datetime</text>
<polygon fill="#eeeeec" stroke="transparent" points="240,-238.5 240,-257.5 257,-257.5 257,-238.5 240,-238.5"/>
<polygon fill="#eeeeec" stroke="transparent" points="75,-219.5 75,-238.5 174,-238.5 174,-219.5 75,-219.5"/>
<text text-anchor="start" x="77" y="-225.3" font-family="Helvetica,sans-Serif" font-size="14.00" fill="#2e3436">updated_at</text>
<polygon fill="#eeeeec" stroke="transparent" points="174,-219.5 174,-238.5 240,-238.5 240,-219.5 174,-219.5"/>
<text text-anchor="start" x="176" y="-225.3" font-family="Helvetica,sans-Serif" font-size="14.00" fill="#2e3436">datetime</text>
<polygon fill="#eeeeec" stroke="transparent" points="240,-219.5 240,-238.5 257,-238.5 257,-219.5 240,-219.5"/>
<polygon fill="none" stroke="black" points="74,-219 74,-432 258,-432 258,-219 74,-219"/>
</g>
<!-- import__import -->
<g id="node2" class="node">
<title>import__import</title>
<polygon fill="#fcaf3e" stroke="transparent" points="9,-138 9,-159 257,-159 257,-138 9,-138"/>
<polygon fill="none" stroke="black" points="9,-138 9,-159 257,-159 257,-138 9,-138"/>
<text text-anchor="start" x="80" y="-144.8" font-family="Helvetica,sans-Serif" font-size="14.00" fill="#2e3436">import__import</text>
<polygon fill="#eeeeec" stroke="transparent" points="9,-119 9,-138 174,-138 174,-119 9,-119"/>
<text text-anchor="start" x="11" y="-124.8" font-family="Helvetica,sans-Serif" font-size="14.00" fill="#2e3436">id</text>
<polygon fill="#eeeeec" stroke="transparent" points="174,-119 174,-138 240,-138 240,-119 174,-119"/>
<text text-anchor="start" x="176" y="-124.8" font-family="Helvetica,sans-Serif" font-size="14.00" fill="#2e3436">integer</text>
<polygon fill="#eeeeec" stroke="transparent" points="240,-119 240,-138 257,-138 257,-119 240,-119"/>
<text text-anchor="start" x="242" y="-124.8" font-family="Times,serif" font-size="14.00">✷</text>
<polygon fill="#eeeeec" stroke="transparent" points="9,-100 9,-119 174,-119 174,-100 9,-100"/>
<text text-anchor="start" x="11" y="-105.8" font-family="Helvetica,sans-Serif" font-size="14.00" fill="#2e3436">entity_class</text>
<polygon fill="#eeeeec" stroke="transparent" points="174,-100 174,-119 240,-119 240,-100 174,-100"/>
<text text-anchor="start" x="176" y="-105.8" font-family="Helvetica,sans-Serif" font-size="14.00" fill="#2e3436">string</text>
<polygon fill="#eeeeec" stroke="transparent" points="240,-100 240,-119 257,-119 257,-100 240,-100"/>
<polygon fill="#eeeeec" stroke="transparent" points="9,-81 9,-100 174,-100 174,-81 9,-81"/>
<text text-anchor="start" x="11" y="-86.8" font-family="Helvetica,sans-Serif" font-size="14.00" fill="#2e3436">insert_when_not_found</text>
<polygon fill="#eeeeec" stroke="transparent" points="174,-81 174,-100 240,-100 240,-81 174,-81"/>
<text text-anchor="start" x="176" y="-86.8" font-family="Helvetica,sans-Serif" font-size="14.00" fill="#2e3436">boolean</text>
<polygon fill="#eeeeec" stroke="transparent" points="240,-81 240,-100 257,-100 257,-81 240,-81"/>
<polygon fill="#eeeeec" stroke="transparent" points="9,-62 9,-81 174,-81 174,-62 9,-62"/>
<text text-anchor="start" x="11" y="-67.8" font-family="Helvetica,sans-Serif" font-size="14.00" fill="#2e3436">file_content</text>
<polygon fill="#eeeeec" stroke="transparent" points="174,-62 174,-81 240,-81 240,-62 174,-62"/>
<text text-anchor="start" x="176" y="-67.8" font-family="Helvetica,sans-Serif" font-size="14.00" fill="#2e3436">text</text>
<polygon fill="#eeeeec" stroke="transparent" points="240,-62 240,-81 257,-81 257,-62 240,-62"/>
<polygon fill="#eeeeec" stroke="transparent" points="9,-43 9,-62 174,-62 174,-43 9,-43"/>
<text text-anchor="start" x="11" y="-48.8" font-family="Helvetica,sans-Serif" font-size="14.00" fill="#2e3436">state</text>
<polygon fill="#eeeeec" stroke="transparent" points="174,-43 174,-62 240,-62 240,-43 174,-43"/>
<text text-anchor="start" x="176" y="-48.8" font-family="Helvetica,sans-Serif" font-size="14.00" fill="#2e3436">string</text>
<polygon fill="#eeeeec" stroke="transparent" points="240,-43 240,-62 257,-62 257,-43 240,-43"/>
<polygon fill="#eeeeec" stroke="transparent" points="9,-24 9,-43 174,-43 174,-24 9,-24"/>
<text text-anchor="start" x="11" y="-29.8" font-family="Helvetica,sans-Serif" font-size="14.00" fill="#2e3436">created_at</text>
<polygon fill="#eeeeec" stroke="transparent" points="174,-24 174,-43 240,-43 240,-24 174,-24"/>
<text text-anchor="start" x="176" y="-29.8" font-family="Helvetica,sans-Serif" font-size="14.00" fill="#2e3436">datetime</text>
<polygon fill="#eeeeec" stroke="transparent" points="240,-24 240,-43 257,-43 257,-24 240,-24"/>
<polygon fill="#eeeeec" stroke="transparent" points="9,-5 9,-24 174,-24 174,-5 9,-5"/>
<text text-anchor="start" x="11" y="-10.8" font-family="Helvetica,sans-Serif" font-size="14.00" fill="#2e3436">updated_at</text>
<polygon fill="#eeeeec" stroke="transparent" points="174,-5 174,-24 240,-24 240,-5 174,-5"/>
<text text-anchor="start" x="176" y="-10.8" font-family="Helvetica,sans-Serif" font-size="14.00" fill="#2e3436">datetime</text>
<polygon fill="#eeeeec" stroke="transparent" points="240,-5 240,-24 257,-24 257,-5 240,-5"/>
<polygon fill="none" stroke="black" points="8,-4 8,-160 258,-160 258,-4 8,-4"/>
</g>
</g>
</svg>
