<?xml version="1.0" encoding="UTF-8" standalone="no"?>
<!DOCTYPE svg PUBLIC "-//W3C//DTD SVG 1.1//EN"
 "http://www.w3.org/Graphics/SVG/1.1/DTD/svg11.dtd">
<!-- Generated by graphviz version 2.43.0 (0)
 -->
<!-- Title: draw Pages: 1 -->
<svg width="1126pt" height="836pt"
 viewBox="0.00 0.00 1125.59 836.00" xmlns="http://www.w3.org/2000/svg" xmlns:xlink="http://www.w3.org/1999/xlink">
<g id="graph0" class="graph" transform="scale(1 1) rotate(0) translate(4 832)">
<title>draw</title>
<polygon fill="white" stroke="transparent" points="-4,4 -4,-832 1121.59,-832 1121.59,4 -4,4"/>
<!-- acme__user_address&#45;&gt;draw_acme__user -->
<g id="edge1" class="edge">
<title>acme__user_address:se&#45;&gt;draw_acme__user:se</title>
<path fill="none" stroke="black" d="M434.85,-761.56C452.91,-734.67 421.63,-706.32 446.5,-678 480.44,-639.35 525.83,-683.29 556.5,-642 556.5,-642 557.5,-599 557.5,-599"/>
<ellipse fill="black" stroke="black" cx="432.06" cy="-764.92" rx="4" ry="4"/>
</g>
<!-- draw_acme__user&#45;&gt;draw_acme__base_object -->
<g id="edge4" class="edge">
<title>draw_acme__user:se&#45;&gt;draw_acme__base_object:se</title>
<path fill="none" stroke="black" d="M557.5,-573.59C557.5,-507.41 557.5,-73 557.5,-73"/>
<ellipse fill="black" stroke="black" cx="557.5" cy="-578" rx="4" ry="4"/>
</g>
<!-- draw_acme__user&#45;&gt;draw_acme__base_object -->
<g id="edge5" class="edge">
<title>draw_acme__user:se&#45;&gt;draw_acme__base_object:se</title>
<path fill="none" stroke="black" d="M557.5,-556.87C557.5,-492.9 557.5,-73 557.5,-73"/>
<ellipse fill="black" stroke="black" cx="557.5" cy="-561" rx="4" ry="4"/>
</g>
<!-- draw_acme__user&#45;&gt;draw_acme__base_object -->
<g id="edge6" class="edge">
<title>draw_acme__user:se&#45;&gt;draw_acme__base_object:se</title>
<path fill="none" stroke="black" d="M557.5,-539.76C557.5,-476.68 557.5,-73 557.5,-73"/>
<ellipse fill="black" stroke="black" cx="557.5" cy="-544" rx="4" ry="4"/>
</g>
<!-- draw_acme__user&#45;&gt;draw_acme__base_object -->
<g id="edge7" class="edge">
<title>draw_acme__user:se&#45;&gt;draw_acme__base_object:se</title>
<path fill="none" stroke="black" d="M557.5,-522.66C557.5,-460.59 557.5,-73 557.5,-73"/>
<ellipse fill="black" stroke="black" cx="557.5" cy="-527" rx="4" ry="4"/>
</g>
<!-- draw_acme__user&#45;&gt;draw_acme__base_object -->
<g id="edge8" class="edge">
<title>draw_acme__user:se&#45;&gt;draw_acme__base_object:se</title>
<path fill="none" stroke="black" d="M557.5,-505.97C557.5,-446.2 557.5,-73 557.5,-73"/>
<ellipse fill="black" stroke="black" cx="557.5" cy="-510" rx="4" ry="4"/>
</g>
<!-- draw_acme__user&#45;&gt;draw_acme__base_object -->
<g id="edge9" class="edge">
<title>draw_acme__user:se&#45;&gt;draw_acme__base_object:se</title>
<path fill="none" stroke="black" d="M557.5,-488.91C557.5,-430.29 557.5,-73 557.5,-73"/>
<ellipse fill="black" stroke="black" cx="557.5" cy="-493" rx="4" ry="4"/>
</g>
<!-- draw_acme__user&#45;&gt;draw_acme__base_object -->
<g id="edge10" class="edge">
<title>draw_acme__user:se&#45;&gt;draw_acme__base_object:se</title>
<path fill="none" stroke="black" d="M557.5,-471.87C557.5,-414.51 557.5,-73 557.5,-73"/>
<ellipse fill="black" stroke="black" cx="557.5" cy="-476" rx="4" ry="4"/>
</g>
<!-- acme__user_tag&#45;&gt;draw_acme__user -->
<g id="edge2" class="edge">
<title>acme__user_tag:se&#45;&gt;draw_acme__user:se</title>
<path fill="none" stroke="black" d="M705.5,-726.85C706.24,-722.25 703.88,-717.46 700.5,-712 666.77,-657.54 616.75,-690.16 574.5,-642 574.5,-642 557.5,-599 557.5,-599"/>
<ellipse fill="black" stroke="black" cx="703.45" cy="-730.51" rx="4" ry="4"/>
</g>
<!-- acme__user_tag&#45;&gt;draw_acme__tag -->
<g id="edge3" class="edge">
<title>acme__user_tag:se&#45;&gt;draw_acme__tag:se</title>
<path fill="none" stroke="black" d="M700.53,-707.74C700.68,-657.5 701.5,-395 701.5,-395"/>
<ellipse fill="black" stroke="black" cx="700.51" cy="-712" rx="4" ry="4"/>
</g>
<!-- user_tag&#45;&gt;draw_acme__user -->
<g id="edge11" class="edge">
<title>user_tag:se&#45;&gt;draw_acme__user:se</title>
<path fill="none" stroke="black" d="M561.27,-734.85C560.43,-704.38 557.5,-599 557.5,-599"/>
<ellipse fill="black" stroke="black" cx="561.39" cy="-739" rx="4" ry="4"/>
</g>
<!-- user_tag&#45;&gt;draw_acme__tag -->
<g id="edge12" class="edge">
<title>user_tag:se&#45;&gt;draw_acme__tag:se</title>
<path fill="none" stroke="black" d="M565.76,-716.84C574.31,-704.73 570.86,-694.86 578.5,-678 627.88,-569.01 671.27,-554.03 700.5,-438 700.5,-438 701.5,-395 701.5,-395"/>
<ellipse fill="black" stroke="black" cx="563.1" cy="-719.96" rx="4" ry="4"/>
</g>
<!-- draw_user__user_lock&#45;&gt;draw_acme__user -->
<g id="edge13" class="edge">
<title>draw_user__user_lock:se&#45;&gt;draw_acme__user:se</title>
<path fill="none" stroke="black" d="M214.8,-761.52C232.49,-734.26 198.83,-703.59 226.5,-678 280.66,-627.91 506.61,-696.34 556.5,-642 556.5,-642 557.5,-599 557.5,-599"/>
<ellipse fill="black" stroke="black" cx="212.03" cy="-764.9" rx="4" ry="4"/>
</g>
<!-- user_migration&#45;&gt;draw_acme__user -->
<g id="edge14" class="edge">
<title>user_migration:se&#45;&gt;draw_acme__user:se</title>
<path fill="none" stroke="black" d="M959.04,-752.79C975.73,-731.6 972.14,-708.28 952.5,-686.5 895.86,-623.68 641.54,-693.57 574.5,-642 574.5,-642 557.5,-599 557.5,-599"/>
<ellipse fill="black" stroke="black" cx="956.16" cy="-756.02" rx="4" ry="4"/>
</g>
<!-- user_migration&#45;&gt;draw_entity_migrator__migration -->
<g id="edge15" class="edge">
<title>user_migration:se&#45;&gt;draw_entity_migrator__migration:se</title>
<path fill="none" stroke="black" d="M959.13,-736.04C1041.44,-643.73 981.68,-469.92 959.71,-415.05"/>
<ellipse fill="black" stroke="black" cx="956.25" cy="-739.09" rx="4" ry="4"/>
</g>
<!-- acme__user_address -->
<g id="node1" class="node">
<title>acme__user_address</title>
<polygon fill="#fcaf3e" stroke="transparent" points="244.5,-804 244.5,-823 428.5,-823 428.5,-804 244.5,-804"/>
<polygon fill="none" stroke="black" points="244.5,-804 244.5,-823 428.5,-823 428.5,-804 244.5,-804"/>
<text text-anchor="start" x="274" y="-810.4" font-family="Helvetica,sans-Serif" font-size="12.00" fill="#2e3436">acme__user_address</text>
<polygon fill="#eeeeec" stroke="transparent" points="244.5,-785 244.5,-804 372.5,-804 372.5,-785 244.5,-785"/>
<text text-anchor="start" x="246.5" y="-791.4" font-family="Helvetica,sans-Serif" font-size="12.00" fill="#2e3436">id</text>
<polygon fill="#eeeeec" stroke="transparent" points="372.5,-785 372.5,-804 411.5,-804 411.5,-785 372.5,-785"/>
<text text-anchor="start" x="374.5" y="-792" font-family="Helvetica,sans-Serif" font-size="10.00" fill="#2e3436">integer</text>
<polygon fill="#eeeeec" stroke="transparent" points="411.5,-785 411.5,-804 428.5,-804 428.5,-785 411.5,-785"/>
<text text-anchor="start" x="413.5" y="-790.8" font-family="Times,serif" font-size="14.00">✷</text>
<polygon fill="#eeeeec" stroke="transparent" points="244.5,-768 244.5,-785 372.5,-785 372.5,-768 244.5,-768"/>
<text text-anchor="start" x="246.5" y="-773.4" font-family="Helvetica,sans-Serif" font-size="12.00" fill="#2e3436">user_id</text>
<polygon fill="#eeeeec" stroke="transparent" points="372.5,-768 372.5,-785 411.5,-785 411.5,-768 372.5,-768"/>
<text text-anchor="start" x="374.5" y="-774" font-family="Helvetica,sans-Serif" font-size="10.00" fill="#2e3436">guid</text>
<polygon fill="#eeeeec" stroke="transparent" points="411.5,-768 411.5,-785 428.5,-785 428.5,-768 411.5,-768"/>
<polygon fill="#eeeeec" stroke="transparent" points="244.5,-751 244.5,-768 372.5,-768 372.5,-751 244.5,-751"/>
<text text-anchor="start" x="246.5" y="-756.4" font-family="Helvetica,sans-Serif" font-size="12.00" fill="#2e3436">position</text>
<polygon fill="#eeeeec" stroke="transparent" points="372.5,-751 372.5,-768 411.5,-768 411.5,-751 372.5,-751"/>
<text text-anchor="start" x="374.5" y="-757" font-family="Helvetica,sans-Serif" font-size="10.00" fill="#2e3436">integer</text>
<polygon fill="#eeeeec" stroke="transparent" points="411.5,-751 411.5,-768 428.5,-768 428.5,-751 411.5,-751"/>
<polygon fill="#eeeeec" stroke="transparent" points="244.5,-734 244.5,-751 372.5,-751 372.5,-734 244.5,-734"/>
<text text-anchor="start" x="246.5" y="-739.4" font-family="Helvetica,sans-Serif" font-size="12.00" fill="#2e3436">address_street</text>
<polygon fill="#eeeeec" stroke="transparent" points="372.5,-734 372.5,-751 411.5,-751 411.5,-734 372.5,-734"/>
<text text-anchor="start" x="374.5" y="-740" font-family="Helvetica,sans-Serif" font-size="10.00" fill="#2e3436">string</text>
<polygon fill="#eeeeec" stroke="transparent" points="411.5,-734 411.5,-751 428.5,-751 428.5,-734 411.5,-734"/>
<polygon fill="#eeeeec" stroke="transparent" points="244.5,-717 244.5,-734 372.5,-734 372.5,-717 244.5,-717"/>
<text text-anchor="start" x="246.5" y="-722.4" font-family="Helvetica,sans-Serif" font-size="12.00" fill="#2e3436">address_postal_code</text>
<polygon fill="#eeeeec" stroke="transparent" points="372.5,-717 372.5,-734 411.5,-734 411.5,-717 372.5,-717"/>
<text text-anchor="start" x="374.5" y="-723" font-family="Helvetica,sans-Serif" font-size="10.00" fill="#2e3436">string</text>
<polygon fill="#eeeeec" stroke="transparent" points="411.5,-717 411.5,-734 428.5,-734 428.5,-717 411.5,-717"/>
<polygon fill="#eeeeec" stroke="transparent" points="244.5,-700 244.5,-717 372.5,-717 372.5,-700 244.5,-700"/>
<text text-anchor="start" x="246.5" y="-705.4" font-family="Helvetica,sans-Serif" font-size="12.00" fill="#2e3436">address_city</text>
<polygon fill="#eeeeec" stroke="transparent" points="372.5,-700 372.5,-717 411.5,-717 411.5,-700 372.5,-700"/>
<text text-anchor="start" x="374.5" y="-706" font-family="Helvetica,sans-Serif" font-size="10.00" fill="#2e3436">string</text>
<polygon fill="#eeeeec" stroke="transparent" points="411.5,-700 411.5,-717 428.5,-717 428.5,-700 411.5,-700"/>
<polygon fill="#eeeeec" stroke="transparent" points="244.5,-683 244.5,-700 372.5,-700 372.5,-683 244.5,-683"/>
<text text-anchor="start" x="246.5" y="-688.4" font-family="Helvetica,sans-Serif" font-size="12.00" fill="#2e3436">address_country</text>
<polygon fill="#eeeeec" stroke="transparent" points="372.5,-683 372.5,-700 411.5,-700 411.5,-683 372.5,-683"/>
<text text-anchor="start" x="374.5" y="-689" font-family="Helvetica,sans-Serif" font-size="10.00" fill="#2e3436">string</text>
<polygon fill="#eeeeec" stroke="transparent" points="411.5,-683 411.5,-700 428.5,-700 428.5,-683 411.5,-683"/>
<polygon fill="none" stroke="black" points="243.5,-682 243.5,-824 429.5,-824 429.5,-682 243.5,-682"/>
</g>
<!-- draw_acme__user -->
<g id="node2" class="node">
<title>draw_acme__user</title>
<polygon fill="#fcaf3e" stroke="transparent" points="156.5,-618 156.5,-637 556.5,-637 556.5,-618 156.5,-618"/>
<polygon fill="none" stroke="black" points="156.5,-618 156.5,-637 556.5,-637 556.5,-618 156.5,-618"/>
<text text-anchor="start" x="302" y="-624.4" font-family="Helvetica,sans-Serif" font-size="12.00" fill="#2e3436">draw_acme__user</text>
<polygon fill="#eeeeec" stroke="transparent" points="156.5,-599 156.5,-618 432.5,-618 432.5,-599 156.5,-599"/>
<text text-anchor="start" x="158.5" y="-605.4" font-family="Helvetica,sans-Serif" font-size="12.00" fill="#2e3436">id</text>
<polygon fill="#eeeeec" stroke="transparent" points="432.5,-599 432.5,-618 539.5,-618 539.5,-599 432.5,-599"/>
<text text-anchor="start" x="434.5" y="-606" font-family="Helvetica,sans-Serif" font-size="10.00" fill="#2e3436">guid</text>
<polygon fill="#eeeeec" stroke="transparent" points="539.5,-599 539.5,-618 556.5,-618 556.5,-599 539.5,-599"/>
<text text-anchor="start" x="541.5" y="-604.8" font-family="Times,serif" font-size="14.00">✷</text>
<polygon fill="#eeeeec" stroke="transparent" points="156.5,-582 156.5,-599 432.5,-599 432.5,-582 156.5,-582"/>
<text text-anchor="start" x="158.5" y="-587.4" font-family="Helvetica,sans-Serif" font-size="12.00" fill="#2e3436">child_object1_id</text>
<polygon fill="#eeeeec" stroke="transparent" points="432.5,-582 432.5,-599 539.5,-599 539.5,-582 432.5,-582"/>
<text text-anchor="start" x="434.5" y="-588" font-family="Helvetica,sans-Serif" font-size="10.00" fill="#2e3436">integer</text>
<polygon fill="#eeeeec" stroke="transparent" points="539.5,-582 539.5,-599 556.5,-599 556.5,-582 539.5,-582"/>
<polygon fill="#eeeeec" stroke="transparent" points="156.5,-565 156.5,-582 432.5,-582 432.5,-565 156.5,-565"/>
<text text-anchor="start" x="158.5" y="-570.4" font-family="Helvetica,sans-Serif" font-size="12.00" fill="#2e3436">child_object2_id</text>
<polygon fill="#eeeeec" stroke="transparent" points="432.5,-565 432.5,-582 539.5,-582 539.5,-565 432.5,-565"/>
<text text-anchor="start" x="434.5" y="-571" font-family="Helvetica,sans-Serif" font-size="10.00" fill="#2e3436">integer</text>
<polygon fill="#eeeeec" stroke="transparent" points="539.5,-565 539.5,-582 556.5,-582 556.5,-565 539.5,-565"/>
<polygon fill="#eeeeec" stroke="transparent" points="156.5,-548 156.5,-565 432.5,-565 432.5,-548 156.5,-548"/>
<text text-anchor="start" x="158.5" y="-553.4" font-family="Helvetica,sans-Serif" font-size="12.00" fill="#2e3436">on_delete_restrict_id</text>
<polygon fill="#eeeeec" stroke="transparent" points="432.5,-548 432.5,-565 539.5,-565 539.5,-548 432.5,-548"/>
<text text-anchor="start" x="434.5" y="-554" font-family="Helvetica,sans-Serif" font-size="10.00" fill="#2e3436">integer</text>
<polygon fill="#eeeeec" stroke="transparent" points="539.5,-548 539.5,-565 556.5,-565 556.5,-548 539.5,-548"/>
<polygon fill="#eeeeec" stroke="transparent" points="156.5,-531 156.5,-548 432.5,-548 432.5,-531 156.5,-531"/>
<text text-anchor="start" x="158.5" y="-536.4" font-family="Helvetica,sans-Serif" font-size="12.00" fill="#2e3436">on_delete_cascade_id</text>
<polygon fill="#eeeeec" stroke="transparent" points="432.5,-531 432.5,-548 539.5,-548 539.5,-531 432.5,-531"/>
<text text-anchor="start" x="434.5" y="-537" font-family="Helvetica,sans-Serif" font-size="10.00" fill="#2e3436">integer</text>
<polygon fill="#eeeeec" stroke="transparent" points="539.5,-531 539.5,-548 556.5,-548 556.5,-531 539.5,-531"/>
<polygon fill="#eeeeec" stroke="transparent" points="156.5,-514 156.5,-531 432.5,-531 432.5,-514 156.5,-514"/>
<text text-anchor="start" x="158.5" y="-519.4" font-family="Helvetica,sans-Serif" font-size="12.00" fill="#2e3436">on_delete_set_null_id</text>
<polygon fill="#eeeeec" stroke="transparent" points="432.5,-514 432.5,-531 539.5,-531 539.5,-514 432.5,-514"/>
<text text-anchor="start" x="434.5" y="-520" font-family="Helvetica,sans-Serif" font-size="10.00" fill="#2e3436">integer</text>
<polygon fill="#eeeeec" stroke="transparent" points="539.5,-514 539.5,-531 556.5,-531 556.5,-514 539.5,-514"/>
<polygon fill="#eeeeec" stroke="transparent" points="156.5,-497 156.5,-514 432.5,-514 432.5,-497 156.5,-497"/>
<text text-anchor="start" x="158.5" y="-502.4" font-family="Helvetica,sans-Serif" font-size="12.00" fill="#2e3436">on_delete_cascade_config_overridden_id</text>
<polygon fill="#eeeeec" stroke="transparent" points="432.5,-497 432.5,-514 539.5,-514 539.5,-497 432.5,-497"/>
<text text-anchor="start" x="434.5" y="-503" font-family="Helvetica,sans-Serif" font-size="10.00" fill="#2e3436">integer</text>
<polygon fill="#eeeeec" stroke="transparent" points="539.5,-497 539.5,-514 556.5,-514 556.5,-497 539.5,-497"/>
<polygon fill="#eeeeec" stroke="transparent" points="156.5,-480 156.5,-497 432.5,-497 432.5,-480 156.5,-480"/>
<text text-anchor="start" x="158.5" y="-485.4" font-family="Helvetica,sans-Serif" font-size="12.00" fill="#2e3436">on_delete_cascade_attribute_overridden_id</text>
<polygon fill="#eeeeec" stroke="transparent" points="432.5,-480 432.5,-497 539.5,-497 539.5,-480 432.5,-480"/>
<text text-anchor="start" x="434.5" y="-486" font-family="Helvetica,sans-Serif" font-size="10.00" fill="#2e3436">integer</text>
<polygon fill="#eeeeec" stroke="transparent" points="539.5,-480 539.5,-497 556.5,-497 556.5,-480 539.5,-480"/>
<polygon fill="#eeeeec" stroke="transparent" points="156.5,-463 156.5,-480 432.5,-480 432.5,-463 156.5,-463"/>
<text text-anchor="start" x="158.5" y="-468.4" font-family="Helvetica,sans-Serif" font-size="12.00" fill="#2e3436">roles</text>
<polygon fill="#eeeeec" stroke="transparent" points="432.5,-463 432.5,-480 539.5,-480 539.5,-463 432.5,-463"/>
<text text-anchor="start" x="434.5" y="-469" font-family="Helvetica,sans-Serif" font-size="10.00" fill="#2e3436">json</text>
<polygon fill="#eeeeec" stroke="transparent" points="539.5,-463 539.5,-480 556.5,-480 556.5,-463 539.5,-463"/>
<polygon fill="#eeeeec" stroke="transparent" points="156.5,-446 156.5,-463 432.5,-463 432.5,-446 156.5,-446"/>
<text text-anchor="start" x="158.5" y="-451.4" font-family="Helvetica,sans-Serif" font-size="12.00" fill="#2e3436">level</text>
<polygon fill="#eeeeec" stroke="transparent" points="432.5,-446 432.5,-463 539.5,-463 539.5,-446 432.5,-446"/>
<text text-anchor="start" x="434.5" y="-452" font-family="Helvetica,sans-Serif" font-size="10.00" fill="#2e3436">string</text>
<polygon fill="#eeeeec" stroke="transparent" points="539.5,-446 539.5,-463 556.5,-463 556.5,-446 539.5,-446"/>
<polygon fill="#eeeeec" stroke="transparent" points="156.5,-429 156.5,-446 432.5,-446 432.5,-429 156.5,-429"/>
<text text-anchor="start" x="158.5" y="-434.4" font-family="Helvetica,sans-Serif" font-size="12.00" fill="#2e3436">date_of_birth</text>
<polygon fill="#eeeeec" stroke="transparent" points="432.5,-429 432.5,-446 539.5,-446 539.5,-429 432.5,-429"/>
<text text-anchor="start" x="434.5" y="-435" font-family="Helvetica,sans-Serif" font-size="10.00" fill="#2e3436">datetime_immutable</text>
<polygon fill="#eeeeec" stroke="transparent" points="539.5,-429 539.5,-446 556.5,-446 556.5,-429 539.5,-429"/>
<polygon fill="#eeeeec" stroke="transparent" points="156.5,-412 156.5,-429 432.5,-429 432.5,-412 156.5,-412"/>
<text text-anchor="start" x="158.5" y="-417.4" font-family="Helvetica,sans-Serif" font-size="12.00" fill="#2e3436">comment</text>
<polygon fill="#eeeeec" stroke="transparent" points="432.5,-412 432.5,-429 539.5,-429 539.5,-412 432.5,-412"/>
<text text-anchor="start" x="434.5" y="-418" font-family="Helvetica,sans-Serif" font-size="10.00" fill="#2e3436">text</text>
<polygon fill="#eeeeec" stroke="transparent" points="539.5,-412 539.5,-429 556.5,-429 556.5,-412 539.5,-412"/>
<polygon fill="#eeeeec" stroke="transparent" points="156.5,-395 156.5,-412 432.5,-412 432.5,-395 156.5,-395"/>
<text text-anchor="start" x="158.5" y="-400.4" font-family="Helvetica,sans-Serif" font-size="12.00" fill="#2e3436">preferred_locale</text>
<polygon fill="#eeeeec" stroke="transparent" points="432.5,-395 432.5,-412 539.5,-412 539.5,-395 432.5,-395"/>
<text text-anchor="start" x="434.5" y="-401" font-family="Helvetica,sans-Serif" font-size="10.00" fill="#2e3436">string</text>
<polygon fill="#eeeeec" stroke="transparent" points="539.5,-395 539.5,-412 556.5,-412 556.5,-395 539.5,-395"/>
<polygon fill="#eeeeec" stroke="transparent" points="156.5,-378 156.5,-395 432.5,-395 432.5,-378 156.5,-378"/>
<text text-anchor="start" x="158.5" y="-383.4" font-family="Helvetica,sans-Serif" font-size="12.00" fill="#2e3436">email_auth_code</text>
<polygon fill="#eeeeec" stroke="transparent" points="432.5,-378 432.5,-395 539.5,-395 539.5,-378 432.5,-378"/>
<text text-anchor="start" x="434.5" y="-384" font-family="Helvetica,sans-Serif" font-size="10.00" fill="#2e3436">string</text>
<polygon fill="#eeeeec" stroke="transparent" points="539.5,-378 539.5,-395 556.5,-395 556.5,-378 539.5,-378"/>
<polygon fill="#eeeeec" stroke="transparent" points="156.5,-361 156.5,-378 432.5,-378 432.5,-361 156.5,-361"/>
<text text-anchor="start" x="158.5" y="-366.4" font-family="Helvetica,sans-Serif" font-size="12.00" fill="#2e3436">email_auth_code_generated_at</text>
<polygon fill="#eeeeec" stroke="transparent" points="432.5,-361 432.5,-378 539.5,-378 539.5,-361 432.5,-361"/>
<text text-anchor="start" x="434.5" y="-367" font-family="Helvetica,sans-Serif" font-size="10.00" fill="#2e3436">datetime_immutable</text>
<polygon fill="#eeeeec" stroke="transparent" points="539.5,-361 539.5,-378 556.5,-378 556.5,-361 539.5,-361"/>
<polygon fill="#eeeeec" stroke="transparent" points="156.5,-344 156.5,-361 432.5,-361 432.5,-344 156.5,-344"/>
<text text-anchor="start" x="158.5" y="-349.4" font-family="Helvetica,sans-Serif" font-size="12.00" fill="#2e3436">two_factor_authentication_enabled_providers</text>
<polygon fill="#eeeeec" stroke="transparent" points="432.5,-344 432.5,-361 539.5,-361 539.5,-344 432.5,-344"/>
<text text-anchor="start" x="434.5" y="-350" font-family="Helvetica,sans-Serif" font-size="10.00" fill="#2e3436">json</text>
<polygon fill="#eeeeec" stroke="transparent" points="539.5,-344 539.5,-361 556.5,-361 556.5,-344 539.5,-344"/>
<polygon fill="#eeeeec" stroke="transparent" points="156.5,-327 156.5,-344 432.5,-344 432.5,-327 156.5,-327"/>
<text text-anchor="start" x="158.5" y="-332.4" font-family="Helvetica,sans-Serif" font-size="12.00" fill="#2e3436">force_enabling_two_factor_authentication</text>
<polygon fill="#eeeeec" stroke="transparent" points="432.5,-327 432.5,-344 539.5,-344 539.5,-327 432.5,-327"/>
<text text-anchor="start" x="434.5" y="-333" font-family="Helvetica,sans-Serif" font-size="10.00" fill="#2e3436">boolean</text>
<polygon fill="#eeeeec" stroke="transparent" points="539.5,-327 539.5,-344 556.5,-344 556.5,-327 539.5,-327"/>
<polygon fill="#eeeeec" stroke="transparent" points="156.5,-310 156.5,-327 432.5,-327 432.5,-310 156.5,-310"/>
<text text-anchor="start" x="158.5" y="-315.4" font-family="Helvetica,sans-Serif" font-size="12.00" fill="#2e3436">totp_secret</text>
<polygon fill="#eeeeec" stroke="transparent" points="432.5,-310 432.5,-327 539.5,-327 539.5,-310 432.5,-310"/>
<text text-anchor="start" x="434.5" y="-316" font-family="Helvetica,sans-Serif" font-size="10.00" fill="#2e3436">string</text>
<polygon fill="#eeeeec" stroke="transparent" points="539.5,-310 539.5,-327 556.5,-327 556.5,-310 539.5,-310"/>
<polygon fill="#eeeeec" stroke="transparent" points="156.5,-293 156.5,-310 432.5,-310 432.5,-293 156.5,-293"/>
<text text-anchor="start" x="158.5" y="-298.4" font-family="Helvetica,sans-Serif" font-size="12.00" fill="#2e3436">manual_lock</text>
<polygon fill="#eeeeec" stroke="transparent" points="432.5,-293 432.5,-310 539.5,-310 539.5,-293 432.5,-293"/>
<text text-anchor="start" x="434.5" y="-299" font-family="Helvetica,sans-Serif" font-size="10.00" fill="#2e3436">boolean</text>
<polygon fill="#eeeeec" stroke="transparent" points="539.5,-293 539.5,-310 556.5,-310 556.5,-293 539.5,-293"/>
<polygon fill="#eeeeec" stroke="transparent" points="156.5,-276 156.5,-293 432.5,-293 432.5,-276 156.5,-276"/>
<text text-anchor="start" x="158.5" y="-281.4" font-family="Helvetica,sans-Serif" font-size="12.00" fill="#2e3436">need_change_password</text>
<polygon fill="#eeeeec" stroke="transparent" points="432.5,-276 432.5,-293 539.5,-293 539.5,-276 432.5,-276"/>
<text text-anchor="start" x="434.5" y="-282" font-family="Helvetica,sans-Serif" font-size="10.00" fill="#2e3436">boolean</text>
<polygon fill="#eeeeec" stroke="transparent" points="539.5,-276 539.5,-293 556.5,-293 556.5,-276 539.5,-276"/>
<polygon fill="#eeeeec" stroke="transparent" points="156.5,-259 156.5,-276 432.5,-276 432.5,-259 156.5,-259"/>
<text text-anchor="start" x="158.5" y="-264.4" font-family="Helvetica,sans-Serif" font-size="12.00" fill="#2e3436">email</text>
<polygon fill="#eeeeec" stroke="transparent" points="432.5,-259 432.5,-276 539.5,-276 539.5,-259 432.5,-259"/>
<text text-anchor="start" x="434.5" y="-265" font-family="Helvetica,sans-Serif" font-size="10.00" fill="#2e3436">string</text>
<polygon fill="#eeeeec" stroke="transparent" points="539.5,-259 539.5,-276 556.5,-276 556.5,-259 539.5,-259"/>
<polygon fill="#eeeeec" stroke="transparent" points="156.5,-242 156.5,-259 432.5,-259 432.5,-242 156.5,-242"/>
<text text-anchor="start" x="158.5" y="-247.4" font-family="Helvetica,sans-Serif" font-size="12.00" fill="#2e3436">password</text>
<polygon fill="#eeeeec" stroke="transparent" points="432.5,-242 432.5,-259 539.5,-259 539.5,-242 432.5,-242"/>
<text text-anchor="start" x="434.5" y="-248" font-family="Helvetica,sans-Serif" font-size="10.00" fill="#2e3436">string</text>
<polygon fill="#eeeeec" stroke="transparent" points="539.5,-242 539.5,-259 556.5,-259 556.5,-242 539.5,-242"/>
<polygon fill="#eeeeec" stroke="transparent" points="156.5,-225 156.5,-242 432.5,-242 432.5,-225 156.5,-225"/>
<text text-anchor="start" x="158.5" y="-230.4" font-family="Helvetica,sans-Serif" font-size="12.00" fill="#2e3436">last_password_updated_at</text>
<polygon fill="#eeeeec" stroke="transparent" points="432.5,-225 432.5,-242 539.5,-242 539.5,-225 432.5,-225"/>
<text text-anchor="start" x="434.5" y="-231" font-family="Helvetica,sans-Serif" font-size="10.00" fill="#2e3436">datetime_immutable</text>
<polygon fill="#eeeeec" stroke="transparent" points="539.5,-225 539.5,-242 556.5,-242 556.5,-225 539.5,-225"/>
<polygon fill="#eeeeec" stroke="transparent" points="156.5,-208 156.5,-225 432.5,-225 432.5,-208 156.5,-208"/>
<text text-anchor="start" x="158.5" y="-213.4" font-family="Helvetica,sans-Serif" font-size="12.00" fill="#2e3436">address_street</text>
<polygon fill="#eeeeec" stroke="transparent" points="432.5,-208 432.5,-225 539.5,-225 539.5,-208 432.5,-208"/>
<text text-anchor="start" x="434.5" y="-214" font-family="Helvetica,sans-Serif" font-size="10.00" fill="#2e3436">string</text>
<polygon fill="#eeeeec" stroke="transparent" points="539.5,-208 539.5,-225 556.5,-225 556.5,-208 539.5,-208"/>
<polygon fill="#eeeeec" stroke="transparent" points="156.5,-191 156.5,-208 432.5,-208 432.5,-191 156.5,-191"/>
<text text-anchor="start" x="158.5" y="-196.4" font-family="Helvetica,sans-Serif" font-size="12.00" fill="#2e3436">address_postal_code</text>
<polygon fill="#eeeeec" stroke="transparent" points="432.5,-191 432.5,-208 539.5,-208 539.5,-191 432.5,-191"/>
<text text-anchor="start" x="434.5" y="-197" font-family="Helvetica,sans-Serif" font-size="10.00" fill="#2e3436">string</text>
<polygon fill="#eeeeec" stroke="transparent" points="539.5,-191 539.5,-208 556.5,-208 556.5,-191 539.5,-191"/>
<polygon fill="#eeeeec" stroke="transparent" points="156.5,-174 156.5,-191 432.5,-191 432.5,-174 156.5,-174"/>
<text text-anchor="start" x="158.5" y="-179.4" font-family="Helvetica,sans-Serif" font-size="12.00" fill="#2e3436">address_city</text>
<polygon fill="#eeeeec" stroke="transparent" points="432.5,-174 432.5,-191 539.5,-191 539.5,-174 432.5,-174"/>
<text text-anchor="start" x="434.5" y="-180" font-family="Helvetica,sans-Serif" font-size="10.00" fill="#2e3436">string</text>
<polygon fill="#eeeeec" stroke="transparent" points="539.5,-174 539.5,-191 556.5,-191 556.5,-174 539.5,-174"/>
<polygon fill="#eeeeec" stroke="transparent" points="156.5,-157 156.5,-174 432.5,-174 432.5,-157 156.5,-157"/>
<text text-anchor="start" x="158.5" y="-162.4" font-family="Helvetica,sans-Serif" font-size="12.00" fill="#2e3436">address_country</text>
<polygon fill="#eeeeec" stroke="transparent" points="432.5,-157 432.5,-174 539.5,-174 539.5,-157 432.5,-157"/>
<text text-anchor="start" x="434.5" y="-163" font-family="Helvetica,sans-Serif" font-size="10.00" fill="#2e3436">string</text>
<polygon fill="#eeeeec" stroke="transparent" points="539.5,-157 539.5,-174 556.5,-174 556.5,-157 539.5,-157"/>
<polygon fill="none" stroke="black" points="155.5,-156 155.5,-638 557.5,-638 557.5,-156 155.5,-156"/>
</g>
<!-- acme__user_tag -->
<g id="node3" class="node">
<title>acme__user_tag</title>
<polygon fill="#fcaf3e" stroke="transparent" points="596.5,-770 596.5,-789 700.5,-789 700.5,-770 596.5,-770"/>
<polygon fill="none" stroke="black" points="596.5,-770 596.5,-789 700.5,-789 700.5,-770 596.5,-770"/>
<text text-anchor="start" x="599.5" y="-776.4" font-family="Helvetica,sans-Serif" font-size="12.00" fill="#2e3436">acme__user_tag</text>
<polygon fill="#eeeeec" stroke="transparent" points="596.5,-751 596.5,-770 643.5,-770 643.5,-751 596.5,-751"/>
<text text-anchor="start" x="598.5" y="-757.4" font-family="Helvetica,sans-Serif" font-size="12.00" fill="#2e3436">id</text>
<polygon fill="#eeeeec" stroke="transparent" points="643.5,-751 643.5,-770 682.5,-770 682.5,-751 643.5,-751"/>
<text text-anchor="start" x="645.5" y="-758" font-family="Helvetica,sans-Serif" font-size="10.00" fill="#2e3436">integer</text>
<polygon fill="#eeeeec" stroke="transparent" points="682.5,-751 682.5,-770 700.5,-770 700.5,-751 682.5,-751"/>
<text text-anchor="start" x="685.5" y="-756.8" font-family="Times,serif" font-size="14.00">✷</text>
<polygon fill="#eeeeec" stroke="transparent" points="596.5,-734 596.5,-751 643.5,-751 643.5,-734 596.5,-734"/>
<text text-anchor="start" x="598.5" y="-739.4" font-family="Helvetica,sans-Serif" font-size="12.00" fill="#2e3436">user_id</text>
<polygon fill="#eeeeec" stroke="transparent" points="643.5,-734 643.5,-751 682.5,-751 682.5,-734 643.5,-734"/>
<text text-anchor="start" x="645.5" y="-740" font-family="Helvetica,sans-Serif" font-size="10.00" fill="#2e3436">guid</text>
<polygon fill="#eeeeec" stroke="transparent" points="682.5,-734 682.5,-751 700.5,-751 700.5,-734 682.5,-734"/>
<polygon fill="#eeeeec" stroke="transparent" points="596.5,-717 596.5,-734 643.5,-734 643.5,-717 596.5,-717"/>
<text text-anchor="start" x="598.5" y="-722.4" font-family="Helvetica,sans-Serif" font-size="12.00" fill="#2e3436">tag_id</text>
<polygon fill="#eeeeec" stroke="transparent" points="643.5,-717 643.5,-734 682.5,-734 682.5,-717 643.5,-717"/>
<text text-anchor="start" x="645.5" y="-723" font-family="Helvetica,sans-Serif" font-size="10.00" fill="#2e3436">bigint</text>
<polygon fill="#eeeeec" stroke="transparent" points="682.5,-717 682.5,-734 700.5,-734 700.5,-717 682.5,-717"/>
<polygon fill="none" stroke="black" points="595.5,-716 595.5,-790 701.5,-790 701.5,-716 595.5,-716"/>
</g>
<!-- draw_acme__tag -->
<g id="node4" class="node">
<title>draw_acme__tag</title>
<polygon fill="#fcaf3e" stroke="transparent" points="592.5,-414 592.5,-433 700.5,-433 700.5,-414 592.5,-414"/>
<polygon fill="none" stroke="black" points="592.5,-414 592.5,-433 700.5,-433 700.5,-414 592.5,-414"/>
<text text-anchor="start" x="595.5" y="-420.4" font-family="Helvetica,sans-Serif" font-size="12.00" fill="#2e3436">draw_acme__tag</text>
<polygon fill="#eeeeec" stroke="transparent" points="592.5,-395 592.5,-414 636.5,-414 636.5,-395 592.5,-395"/>
<text text-anchor="start" x="594.5" y="-401.4" font-family="Helvetica,sans-Serif" font-size="12.00" fill="#2e3436">id</text>
<polygon fill="#eeeeec" stroke="transparent" points="636.5,-395 636.5,-414 681.5,-414 681.5,-395 636.5,-395"/>
<text text-anchor="start" x="638.5" y="-402" font-family="Helvetica,sans-Serif" font-size="10.00" fill="#2e3436">bigint</text>
<polygon fill="#eeeeec" stroke="transparent" points="681.5,-395 681.5,-414 700.5,-414 700.5,-395 681.5,-395"/>
<text text-anchor="start" x="685.5" y="-400.8" font-family="Times,serif" font-size="14.00">✷</text>
<polygon fill="#eeeeec" stroke="transparent" points="592.5,-378 592.5,-395 636.5,-395 636.5,-378 592.5,-378"/>
<text text-anchor="start" x="594.5" y="-383.4" font-family="Helvetica,sans-Serif" font-size="12.00" fill="#2e3436">name</text>
<polygon fill="#eeeeec" stroke="transparent" points="636.5,-378 636.5,-395 681.5,-395 681.5,-378 636.5,-378"/>
<text text-anchor="start" x="638.5" y="-384" font-family="Helvetica,sans-Serif" font-size="10.00" fill="#2e3436">string</text>
<polygon fill="#eeeeec" stroke="transparent" points="681.5,-378 681.5,-395 700.5,-395 700.5,-378 681.5,-378"/>
<polygon fill="#eeeeec" stroke="transparent" points="592.5,-361 592.5,-378 636.5,-378 636.5,-361 592.5,-361"/>
<text text-anchor="start" x="594.5" y="-366.4" font-family="Helvetica,sans-Serif" font-size="12.00" fill="#2e3436">active</text>
<polygon fill="#eeeeec" stroke="transparent" points="636.5,-361 636.5,-378 681.5,-378 681.5,-361 636.5,-361"/>
<text text-anchor="start" x="638.5" y="-367" font-family="Helvetica,sans-Serif" font-size="10.00" fill="#2e3436">boolean</text>
<polygon fill="#eeeeec" stroke="transparent" points="681.5,-361 681.5,-378 700.5,-378 700.5,-361 681.5,-361"/>
<polygon fill="none" stroke="black" points="591.5,-360 591.5,-434 701.5,-434 701.5,-360 591.5,-360"/>
</g>
<!-- draw_acme__base_object -->
<g id="node5" class="node">
<title>draw_acme__base_object</title>
<polygon fill="#fcaf3e" stroke="transparent" points="297.5,-92 297.5,-111 556.5,-111 556.5,-92 297.5,-92"/>
<polygon fill="none" stroke="black" points="297.5,-92 297.5,-111 556.5,-111 556.5,-92 297.5,-92"/>
<text text-anchor="start" x="350" y="-98.4" font-family="Helvetica,sans-Serif" font-size="12.00" fill="#2e3436">draw_acme__base_object</text>
<polygon fill="#eeeeec" stroke="transparent" points="297.5,-73 297.5,-92 432.5,-92 432.5,-73 297.5,-73"/>
<text text-anchor="start" x="299.5" y="-79.4" font-family="Helvetica,sans-Serif" font-size="12.00" fill="#2e3436">id</text>
<polygon fill="#eeeeec" stroke="transparent" points="432.5,-73 432.5,-92 539.5,-92 539.5,-73 432.5,-73"/>
<text text-anchor="start" x="434.5" y="-80" font-family="Helvetica,sans-Serif" font-size="10.00" fill="#2e3436">integer</text>
<polygon fill="#eeeeec" stroke="transparent" points="539.5,-73 539.5,-92 556.5,-92 556.5,-73 539.5,-73"/>
<text text-anchor="start" x="541.5" y="-78.8" font-family="Times,serif" font-size="14.00">✷</text>
<polygon fill="#eeeeec" stroke="transparent" points="297.5,-56 297.5,-73 432.5,-73 432.5,-56 297.5,-56"/>
<text text-anchor="start" x="299.5" y="-61.4" font-family="Helvetica,sans-Serif" font-size="12.00" fill="#2e3436">discriminator_type</text>
<polygon fill="#eeeeec" stroke="transparent" points="432.5,-56 432.5,-73 539.5,-73 539.5,-56 432.5,-56"/>
<text text-anchor="start" x="434.5" y="-62" font-family="Helvetica,sans-Serif" font-size="10.00" fill="#2e3436">string</text>
<polygon fill="#eeeeec" stroke="transparent" points="539.5,-56 539.5,-73 556.5,-73 556.5,-56 539.5,-56"/>
<polygon fill="#eeeeec" stroke="transparent" points="297.5,-39 297.5,-56 432.5,-56 432.5,-39 297.5,-39"/>
<text text-anchor="start" x="299.5" y="-44.4" font-family="Helvetica,sans-Serif" font-size="12.00" fill="#2e3436">attribute_1</text>
<polygon fill="#eeeeec" stroke="transparent" points="432.5,-39 432.5,-56 539.5,-56 539.5,-39 432.5,-39"/>
<text text-anchor="start" x="434.5" y="-45" font-family="Helvetica,sans-Serif" font-size="10.00" fill="#2e3436">string</text>
<polygon fill="#eeeeec" stroke="transparent" points="539.5,-39 539.5,-56 556.5,-56 556.5,-39 539.5,-39"/>
<polygon fill="#eeeeec" stroke="transparent" points="297.5,-22 297.5,-39 432.5,-39 432.5,-22 297.5,-22"/>
<text text-anchor="start" x="299.5" y="-27.4" font-family="Helvetica,sans-Serif" font-size="12.00" fill="#2e3436">date_time_immutable</text>
<polygon fill="#eeeeec" stroke="transparent" points="432.5,-22 432.5,-39 539.5,-39 539.5,-22 432.5,-22"/>
<text text-anchor="start" x="434.5" y="-28" font-family="Helvetica,sans-Serif" font-size="10.00" fill="#2e3436">datetime_immutable</text>
<polygon fill="#eeeeec" stroke="transparent" points="539.5,-22 539.5,-39 556.5,-39 556.5,-22 539.5,-22"/>
<polygon fill="#eeeeec" stroke="transparent" points="297.5,-5 297.5,-22 432.5,-22 432.5,-5 297.5,-5"/>
<text text-anchor="start" x="299.5" y="-10.4" font-family="Helvetica,sans-Serif" font-size="12.00" fill="#2e3436">attribute_2</text>
<polygon fill="#eeeeec" stroke="transparent" points="432.5,-5 432.5,-22 539.5,-22 539.5,-5 432.5,-5"/>
<text text-anchor="start" x="434.5" y="-11" font-family="Helvetica,sans-Serif" font-size="10.00" fill="#2e3436">string</text>
<polygon fill="#eeeeec" stroke="transparent" points="539.5,-5 539.5,-22 556.5,-22 556.5,-5 539.5,-5"/>
<polygon fill="none" stroke="black" points="296,-4 296,-112 557,-112 557,-4 296,-4"/>
</g>
<!-- user_tag -->
<g id="node6" class="node">
<title>user_tag</title>
<polygon fill="#fcaf3e" stroke="transparent" points="464.5,-762 464.5,-781 560.5,-781 560.5,-762 464.5,-762"/>
<polygon fill="none" stroke="black" points="464.5,-762 464.5,-781 560.5,-781 560.5,-762 464.5,-762"/>
<text text-anchor="start" x="486.5" y="-768.4" font-family="Helvetica,sans-Serif" font-size="12.00" fill="#2e3436">user_tag</text>
<polygon fill="#eeeeec" stroke="transparent" points="464.5,-743 464.5,-762 511.5,-762 511.5,-743 464.5,-743"/>
<text text-anchor="start" x="466.5" y="-749.4" font-family="Helvetica,sans-Serif" font-size="12.00" fill="#2e3436">user_id</text>
<polygon fill="#eeeeec" stroke="transparent" points="511.5,-743 511.5,-762 543.5,-762 543.5,-743 511.5,-743"/>
<text text-anchor="start" x="513.5" y="-750" font-family="Helvetica,sans-Serif" font-size="10.00" fill="#2e3436">guid</text>
<polygon fill="#eeeeec" stroke="transparent" points="543.5,-743 543.5,-762 560.5,-762 560.5,-743 543.5,-743"/>
<text text-anchor="start" x="545.5" y="-748.8" font-family="Times,serif" font-size="14.00">✷</text>
<polygon fill="#eeeeec" stroke="transparent" points="464.5,-724 464.5,-743 511.5,-743 511.5,-724 464.5,-724"/>
<text text-anchor="start" x="466.5" y="-730.4" font-family="Helvetica,sans-Serif" font-size="12.00" fill="#2e3436">tag_id</text>
<polygon fill="#eeeeec" stroke="transparent" points="511.5,-724 511.5,-743 543.5,-743 543.5,-724 511.5,-724"/>
<text text-anchor="start" x="513.5" y="-731" font-family="Helvetica,sans-Serif" font-size="10.00" fill="#2e3436">bigint</text>
<polygon fill="#eeeeec" stroke="transparent" points="543.5,-724 543.5,-743 560.5,-743 560.5,-724 543.5,-724"/>
<text text-anchor="start" x="545.5" y="-729.8" font-family="Times,serif" font-size="14.00">✷</text>
<polygon fill="none" stroke="black" points="463.5,-723.5 463.5,-782.5 561.5,-782.5 561.5,-723.5 463.5,-723.5"/>
</g>
<!-- draw_user__user_lock -->
<g id="node7" class="node">
<title>draw_user__user_lock</title>
<polygon fill="#fcaf3e" stroke="transparent" points="9.5,-804 9.5,-823 208.5,-823 208.5,-804 9.5,-804"/>
<polygon fill="none" stroke="black" points="9.5,-804 9.5,-823 208.5,-823 208.5,-804 9.5,-804"/>
<text text-anchor="start" x="43.5" y="-810.4" font-family="Helvetica,sans-Serif" font-size="12.00" fill="#2e3436">draw_user__user_lock</text>
<polygon fill="#eeeeec" stroke="transparent" points="9.5,-785 9.5,-804 84.5,-804 84.5,-785 9.5,-785"/>
<text text-anchor="start" x="11.5" y="-791.4" font-family="Helvetica,sans-Serif" font-size="12.00" fill="#2e3436">id</text>
<polygon fill="#eeeeec" stroke="transparent" points="84.5,-785 84.5,-804 191.5,-804 191.5,-785 84.5,-785"/>
<text text-anchor="start" x="86.5" y="-792" font-family="Helvetica,sans-Serif" font-size="10.00" fill="#2e3436">guid</text>
<polygon fill="#eeeeec" stroke="transparent" points="191.5,-785 191.5,-804 208.5,-804 208.5,-785 191.5,-785"/>
<text text-anchor="start" x="193.5" y="-790.8" font-family="Times,serif" font-size="14.00">✷</text>
<polygon fill="#eeeeec" stroke="transparent" points="9.5,-768 9.5,-785 84.5,-785 84.5,-768 9.5,-768"/>
<text text-anchor="start" x="11.5" y="-773.4" font-family="Helvetica,sans-Serif" font-size="12.00" fill="#2e3436">user_id</text>
<polygon fill="#eeeeec" stroke="transparent" points="84.5,-768 84.5,-785 191.5,-785 191.5,-768 84.5,-768"/>
<text text-anchor="start" x="86.5" y="-774" font-family="Helvetica,sans-Serif" font-size="10.00" fill="#2e3436">guid</text>
<polygon fill="#eeeeec" stroke="transparent" points="191.5,-768 191.5,-785 208.5,-785 208.5,-768 191.5,-768"/>
<polygon fill="#eeeeec" stroke="transparent" points="9.5,-751 9.5,-768 84.5,-768 84.5,-751 9.5,-751"/>
<text text-anchor="start" x="11.5" y="-756.4" font-family="Helvetica,sans-Serif" font-size="12.00" fill="#2e3436">reason</text>
<polygon fill="#eeeeec" stroke="transparent" points="84.5,-751 84.5,-768 191.5,-768 191.5,-751 84.5,-751"/>
<text text-anchor="start" x="86.5" y="-757" font-family="Helvetica,sans-Serif" font-size="10.00" fill="#2e3436">string</text>
<polygon fill="#eeeeec" stroke="transparent" points="191.5,-751 191.5,-768 208.5,-768 208.5,-751 191.5,-751"/>
<polygon fill="#eeeeec" stroke="transparent" points="9.5,-734 9.5,-751 84.5,-751 84.5,-734 9.5,-734"/>
<text text-anchor="start" x="11.5" y="-739.4" font-family="Helvetica,sans-Serif" font-size="12.00" fill="#2e3436">created_at</text>
<polygon fill="#eeeeec" stroke="transparent" points="84.5,-734 84.5,-751 191.5,-751 191.5,-734 84.5,-734"/>
<text text-anchor="start" x="86.5" y="-740" font-family="Helvetica,sans-Serif" font-size="10.00" fill="#2e3436">datetime_immutable</text>
<polygon fill="#eeeeec" stroke="transparent" points="191.5,-734 191.5,-751 208.5,-751 208.5,-734 191.5,-734"/>
<polygon fill="#eeeeec" stroke="transparent" points="9.5,-717 9.5,-734 84.5,-734 84.5,-717 9.5,-717"/>
<text text-anchor="start" x="11.5" y="-722.4" font-family="Helvetica,sans-Serif" font-size="12.00" fill="#2e3436">lock_on</text>
<polygon fill="#eeeeec" stroke="transparent" points="84.5,-717 84.5,-734 191.5,-734 191.5,-717 84.5,-717"/>
<text text-anchor="start" x="86.5" y="-723" font-family="Helvetica,sans-Serif" font-size="10.00" fill="#2e3436">datetime_immutable</text>
<polygon fill="#eeeeec" stroke="transparent" points="191.5,-717 191.5,-734 208.5,-734 208.5,-717 191.5,-717"/>
<polygon fill="#eeeeec" stroke="transparent" points="9.5,-700 9.5,-717 84.5,-717 84.5,-700 9.5,-700"/>
<text text-anchor="start" x="11.5" y="-705.4" font-family="Helvetica,sans-Serif" font-size="12.00" fill="#2e3436">expires_at</text>
<polygon fill="#eeeeec" stroke="transparent" points="84.5,-700 84.5,-717 191.5,-717 191.5,-700 84.5,-700"/>
<text text-anchor="start" x="86.5" y="-706" font-family="Helvetica,sans-Serif" font-size="10.00" fill="#2e3436">datetime_immutable</text>
<polygon fill="#eeeeec" stroke="transparent" points="191.5,-700 191.5,-717 208.5,-717 208.5,-700 191.5,-700"/>
<polygon fill="#eeeeec" stroke="transparent" points="9.5,-683 9.5,-700 84.5,-700 84.5,-683 9.5,-683"/>
<text text-anchor="start" x="11.5" y="-688.4" font-family="Helvetica,sans-Serif" font-size="12.00" fill="#2e3436">unlock_until</text>
<polygon fill="#eeeeec" stroke="transparent" points="84.5,-683 84.5,-700 191.5,-700 191.5,-683 84.5,-683"/>
<text text-anchor="start" x="86.5" y="-689" font-family="Helvetica,sans-Serif" font-size="10.00" fill="#2e3436">datetime_immutable</text>
<polygon fill="#eeeeec" stroke="transparent" points="191.5,-683 191.5,-700 208.5,-700 208.5,-683 191.5,-683"/>
<polygon fill="none" stroke="black" points="8,-682 8,-824 209,-824 209,-682 8,-682"/>
</g>
<!-- user_migration -->
<g id="node8" class="node">
<title>user_migration</title>
<polygon fill="#fcaf3e" stroke="transparent" points="737.5,-795 737.5,-814 952.5,-814 952.5,-795 737.5,-795"/>
<polygon fill="none" stroke="black" points="737.5,-795 737.5,-814 952.5,-814 952.5,-795 737.5,-795"/>
<text text-anchor="start" x="799.5" y="-801.4" font-family="Helvetica,sans-Serif" font-size="12.00" fill="#2e3436">user_migration</text>
<polygon fill="#eeeeec" stroke="transparent" points="737.5,-776 737.5,-795 828.5,-795 828.5,-776 737.5,-776"/>
<text text-anchor="start" x="739.5" y="-782.4" font-family="Helvetica,sans-Serif" font-size="12.00" fill="#2e3436">id</text>
<polygon fill="#eeeeec" stroke="transparent" points="828.5,-776 828.5,-795 935.5,-795 935.5,-776 828.5,-776"/>
<text text-anchor="start" x="830.5" y="-783" font-family="Helvetica,sans-Serif" font-size="10.00" fill="#2e3436">bigint</text>
<polygon fill="#eeeeec" stroke="transparent" points="935.5,-776 935.5,-795 952.5,-795 952.5,-776 935.5,-776"/>
<text text-anchor="start" x="937.5" y="-781.8" font-family="Times,serif" font-size="14.00">✷</text>
<polygon fill="#eeeeec" stroke="transparent" points="737.5,-759 737.5,-776 828.5,-776 828.5,-759 737.5,-759"/>
<text text-anchor="start" x="739.5" y="-764.4" font-family="Helvetica,sans-Serif" font-size="12.00" fill="#2e3436">entity_id</text>
<polygon fill="#eeeeec" stroke="transparent" points="828.5,-759 828.5,-776 935.5,-776 935.5,-759 828.5,-759"/>
<text text-anchor="start" x="830.5" y="-765" font-family="Helvetica,sans-Serif" font-size="10.00" fill="#2e3436">guid</text>
<polygon fill="#eeeeec" stroke="transparent" points="935.5,-759 935.5,-776 952.5,-776 952.5,-759 935.5,-759"/>
<polygon fill="#eeeeec" stroke="transparent" points="737.5,-742 737.5,-759 828.5,-759 828.5,-742 737.5,-742"/>
<text text-anchor="start" x="739.5" y="-747.4" font-family="Helvetica,sans-Serif" font-size="12.00" fill="#2e3436">migration_id</text>
<polygon fill="#eeeeec" stroke="transparent" points="828.5,-742 828.5,-759 935.5,-759 935.5,-742 828.5,-742"/>
<text text-anchor="start" x="830.5" y="-748" font-family="Helvetica,sans-Serif" font-size="10.00" fill="#2e3436">integer</text>
<polygon fill="#eeeeec" stroke="transparent" points="935.5,-742 935.5,-759 952.5,-759 952.5,-742 935.5,-742"/>
<polygon fill="#eeeeec" stroke="transparent" points="737.5,-725 737.5,-742 828.5,-742 828.5,-725 737.5,-725"/>
<text text-anchor="start" x="739.5" y="-730.4" font-family="Helvetica,sans-Serif" font-size="12.00" fill="#2e3436">state</text>
<polygon fill="#eeeeec" stroke="transparent" points="828.5,-725 828.5,-742 935.5,-742 935.5,-725 828.5,-725"/>
<text text-anchor="start" x="830.5" y="-731" font-family="Helvetica,sans-Serif" font-size="10.00" fill="#2e3436">string</text>
<polygon fill="#eeeeec" stroke="transparent" points="935.5,-725 935.5,-742 952.5,-742 952.5,-725 935.5,-725"/>
<polygon fill="#eeeeec" stroke="transparent" points="737.5,-708 737.5,-725 828.5,-725 828.5,-708 737.5,-708"/>
<text text-anchor="start" x="739.5" y="-713.4" font-family="Helvetica,sans-Serif" font-size="12.00" fill="#2e3436">transition_logs</text>
<polygon fill="#eeeeec" stroke="transparent" points="828.5,-708 828.5,-725 935.5,-725 935.5,-708 828.5,-708"/>
<text text-anchor="start" x="830.5" y="-714" font-family="Helvetica,sans-Serif" font-size="10.00" fill="#2e3436">json</text>
<polygon fill="#eeeeec" stroke="transparent" points="935.5,-708 935.5,-725 952.5,-725 952.5,-708 935.5,-708"/>
<polygon fill="#eeeeec" stroke="transparent" points="737.5,-691 737.5,-708 828.5,-708 828.5,-691 737.5,-691"/>
<text text-anchor="start" x="739.5" y="-696.4" font-family="Helvetica,sans-Serif" font-size="12.00" fill="#2e3436">created_at</text>
<polygon fill="#eeeeec" stroke="transparent" points="828.5,-691 828.5,-708 935.5,-708 935.5,-691 828.5,-691"/>
<text text-anchor="start" x="830.5" y="-697" font-family="Helvetica,sans-Serif" font-size="10.00" fill="#2e3436">datetime_immutable</text>
<polygon fill="#eeeeec" stroke="transparent" points="935.5,-691 935.5,-708 952.5,-708 952.5,-691 935.5,-691"/>
<polygon fill="none" stroke="black" points="736,-690.5 736,-815.5 953,-815.5 953,-690.5 736,-690.5"/>
</g>
<!-- draw_entity_migrator__migration -->
<g id="node9" class="node">
<title>draw_entity_migrator__migration</title>
<ellipse fill="none" stroke="black" cx="952.5" cy="-397" rx="165.17" ry="18"/>
<text text-anchor="middle" x="952.5" y="-393.3" font-family="Times,serif" font-size="14.00">draw_entity_migrator__migration</text>
</g>
</g>
</svg>
