<?xml version="1.0" encoding="UTF-8" standalone="no"?>
<!DOCTYPE svg PUBLIC "-//W3C//DTD SVG 1.1//EN"
 "http://www.w3.org/Graphics/SVG/1.1/DTD/svg11.dtd">
<!-- Generated by graphviz version 2.43.0 (0)
 -->
<!-- Title: draw Pages: 1 -->
<svg width="1467pt" height="944pt"
 viewBox="0.00 0.00 1467.00 944.00" xmlns="http://www.w3.org/2000/svg" xmlns:xlink="http://www.w3.org/1999/xlink">
<g id="graph0" class="graph" transform="scale(1 1) rotate(0) translate(4 940)">
<title>draw</title>
<polygon fill="white" stroke="transparent" points="-4,4 -4,-940 1463,-940 1463,4 -4,4"/>
<!-- acme__user_address&#45;&gt;draw_acme__user -->
<g id="edge1" class="edge">
<title>acme__user_address:column_user_id&#45;&gt;draw_acme__user:column_id</title>
<path fill="none" stroke="black" d="M907,-882C955.89,-882 933.8,-812.22 906,-772 890.27,-749.24 736.27,-693.12 675.26,-686.62"/>
<polygon fill="black" stroke="black" points="675.19,-683.11 665,-686 674.77,-690.09 675.19,-683.11"/>
<text text-anchor="middle" x="954" y="-742.8" font-family="Times,serif" font-size="14.00">on delete: CASCADE</text>
</g>
<!-- acme__user_tag&#45;&gt;draw_acme__tag -->
<g id="edge3" class="edge">
<title>acme__user_tag:column_tag_id&#45;&gt;draw_acme__tag:column_id</title>
<path fill="none" stroke="black" d="M127,-814C127,-787.3 124.67,-780.69 124,-754 123.83,-747.34 123.89,-745.67 124,-739 125.78,-629.62 128.66,-602.34 132,-493 132.29,-483.64 138.22,-472.88 139.52,-465.78"/>
<polygon fill="black" stroke="black" points="142.1,-463.42 133,-458 136.74,-467.91 142.1,-463.42"/>
</g>
<!-- acme__user_tag&#45;&gt;draw_acme__user -->
<g id="edge2" class="edge">
<title>acme__user_tag:column_user_id&#45;&gt;draw_acme__user:column_id</title>
<path fill="none" stroke="black" d="M136,-843C182.26,-843 107.22,-771.64 140,-739 181.28,-697.89 622.93,-762.31 664,-721 671.71,-713.24 676.77,-699.09 673.68,-691.37"/>
<polygon fill="black" stroke="black" points="675.35,-688.29 665,-686 671.66,-694.24 675.35,-688.29"/>
<text text-anchor="middle" x="214" y="-742.8" font-family="Times,serif" font-size="14.00">on delete: CASCADE</text>
</g>
<!-- draw_acme__user&#45;&gt;draw_acme__base_object -->
<g id="edge4" class="edge">
<title>draw_acme__user:column_child_object1_id&#45;&gt;draw_acme__base_object:column_id</title>
<path fill="none" stroke="black" d="M665,-667C803.5,-667 1094.05,-249.23 1004,-144 980.81,-116.9 737.67,-94.12 675.21,-91.29"/>
<polygon fill="black" stroke="black" points="675.1,-87.79 665,-91 674.89,-94.79 675.1,-87.79"/>
<text text-anchor="middle" x="1089.5" y="-147.8" font-family="Times,serif" font-size="14.00">on delete: SET NULL</text>
</g>
<!-- draw_acme__user&#45;&gt;draw_acme__base_object -->
<g id="edge5" class="edge">
<title>draw_acme__user:column_child_object2_id&#45;&gt;draw_acme__base_object:column_id</title>
<path fill="none" stroke="black" d="M665,-648C900.7,-648 968.86,-334.45 830,-144 809.08,-115.31 719.24,-94.48 675.15,-91.39"/>
<polygon fill="black" stroke="black" points="675.13,-87.89 665,-91 674.86,-94.89 675.13,-87.89"/>
<text text-anchor="middle" x="914.5" y="-147.8" font-family="Times,serif" font-size="14.00">on delete: SET NULL</text>
</g>
<!-- draw_acme__user&#45;&gt;draw_acme__base_object -->
<g id="edge6" class="edge">
<title>draw_acme__user:column_on_delete_restrict_id&#45;&gt;draw_acme__base_object:column_id</title>
<path fill="none" stroke="black" d="M665,-629C889.36,-629 932.5,-328.6 805,-144 787.79,-119.09 713.49,-95.62 675.2,-91.6"/>
<polygon fill="black" stroke="black" points="675.19,-88.1 665,-91 674.78,-95.08 675.19,-88.1"/>
</g>
<!-- draw_acme__user&#45;&gt;draw_acme__base_object -->
<g id="edge7" class="edge">
<title>draw_acme__user:column_on_delete_cascade_id&#45;&gt;draw_acme__base_object:column_id</title>
<path fill="none" stroke="black" d="M665,-610C857.44,-610 716.34,-362.19 664,-177 661.45,-167.98 655.54,-168.03 653,-159 651.19,-152.58 651.19,-150.42 653,-144 655.54,-134.97 661.33,-134.99 664,-126 666.84,-116.44 672.84,-104.77 672.69,-97.61"/>
<polygon fill="black" stroke="black" points="674.87,-94.86 665,-91 670.3,-100.17 674.87,-94.86"/>
<text text-anchor="middle" x="727" y="-147.8" font-family="Times,serif" font-size="14.00">on delete: CASCADE</text>
</g>
<!-- draw_acme__user&#45;&gt;draw_acme__base_object -->
<g id="edge8" class="edge">
<title>draw_acme__user:column_on_delete_set_null_id&#45;&gt;draw_acme__base_object:column_id</title>
<path fill="none" stroke="black" d="M665,-591C849,-591 787.1,-313.75 664,-177 639.03,-149.26 521.94,-186.77 497,-159 492.55,-154.04 492.55,-148.96 497,-144 521.94,-116.23 638.67,-153.41 664,-126 671.43,-117.96 676.6,-103.93 673.6,-96.3"/>
<polygon fill="black" stroke="black" points="675.35,-93.26 665,-91 671.68,-99.22 675.35,-93.26"/>
<text text-anchor="middle" x="572.5" y="-147.8" font-family="Times,serif" font-size="14.00">on delete: SET NULL</text>
</g>
<!-- draw_acme__user&#45;&gt;draw_acme__base_object -->
<g id="edge9" class="edge">
<title>draw_acme__user:column_on_delete_cascade_config_overridden_id&#45;&gt;draw_acme__base_object:column_id</title>
<path fill="none" stroke="black" d="M665,-572C840.56,-572 784.78,-304.4 664,-177 614.69,-124.99 391.24,-211.07 342,-159 337.42,-154.16 337.42,-148.84 342,-144 391.24,-91.93 614.02,-177.36 664,-126 671.63,-118.16 676.72,-104.04 673.66,-96.35"/>
<polygon fill="black" stroke="black" points="675.35,-93.28 665,-91 671.67,-99.23 675.35,-93.28"/>
<text text-anchor="middle" x="416" y="-147.8" font-family="Times,serif" font-size="14.00">on delete: CASCADE</text>
</g>
<!-- draw_acme__user&#45;&gt;draw_acme__base_object -->
<g id="edge10" class="edge">
<title>draw_acme__user:column_on_delete_cascade_attribute_overridden_id&#45;&gt;draw_acme__base_object:column_id</title>
<path fill="none" stroke="black" d="M665,-553C832.11,-553 780.08,-297.22 664,-177 627.16,-138.85 223.79,-197.2 187,-159 182.38,-154.2 182.38,-148.8 187,-144 223.79,-105.8 626.67,-163.67 664,-126 671.7,-118.23 676.76,-104.08 673.68,-96.37"/>
<polygon fill="black" stroke="black" points="675.35,-93.28 665,-91 671.66,-99.24 675.35,-93.28"/>
<text text-anchor="middle" x="261" y="-147.8" font-family="Times,serif" font-size="14.00">on delete: CASCADE</text>
</g>
<!-- user_tag&#45;&gt;draw_acme__tag -->
<g id="edge12" class="edge">
<title>user_tag:column_tag_id&#45;&gt;draw_acme__tag:column_id</title>
<path fill="none" stroke="black" d="M327,-823C327,-782.56 324,-763.73 292,-739 246.54,-703.87 204.17,-762.07 164,-721 125.59,-681.72 183.17,-486.55 143.1,-460.81"/>
<polygon fill="black" stroke="black" points="143.57,-457.3 133,-458 141.7,-464.05 143.57,-457.3"/>
<text text-anchor="middle" x="382" y="-742.8" font-family="Times,serif" font-size="14.00">on delete: CASCADE</text>
</g>
<!-- user_tag&#45;&gt;draw_acme__user -->
<g id="edge11" class="edge">
<title>user_tag:column_user_id&#45;&gt;draw_acme__user:column_id</title>
<path fill="none" stroke="black" d="M336,-852C376.58,-852 347.47,-796.26 380,-772 410.26,-749.44 426.36,-763.06 463,-754 487.18,-748.02 492.57,-743.86 517,-739 549.28,-732.58 641.84,-745.33 664,-721 671.37,-712.91 676.56,-698.89 673.59,-691.28"/>
<polygon fill="black" stroke="black" points="675.35,-688.26 665,-686 671.68,-694.22 675.35,-688.26"/>
<text text-anchor="middle" x="591" y="-742.8" font-family="Times,serif" font-size="14.00">on delete: CASCADE</text>
</g>
<!-- draw_user__user_lock&#45;&gt;draw_acme__user -->
<g id="edge13" class="edge">
<title>draw_user__user_lock:column_user_id&#45;&gt;draw_acme__user:column_id</title>
<path fill="none" stroke="black" d="M651,-882C660.45,-882 672.2,-735.27 668.12,-695.72"/>
<polygon fill="black" stroke="black" points="671.39,-694.45 665,-686 664.73,-696.59 671.39,-694.45"/>
<text text-anchor="middle" x="743" y="-742.8" font-family="Times,serif" font-size="14.00">on delete: CASCADE</text>
</g>
<!-- user_migration&#45;&gt;draw_acme__user -->
<g id="edge14" class="edge">
<title>user_migration:column_entity_id&#45;&gt;draw_acme__user:column_id</title>
<path fill="none" stroke="black" d="M1231,-872C1271.22,-872 1255.46,-812.65 1230,-781.5 1212.12,-759.62 769.51,-691.88 675.14,-686.36"/>
<polygon fill="black" stroke="black" points="675.12,-682.86 665,-686 674.87,-689.85 675.12,-682.86"/>
<text text-anchor="middle" x="1197" y="-742.8" font-family="Times,serif" font-size="14.00">on delete: CASCADE</text>
</g>
<!-- user_migration&#45;&gt;draw_entity_migrator__migration -->
<g id="edge15" class="edge">
<title>user_migration:column_migration_id&#45;&gt;draw_entity_migrator__migration:column_id</title>
<path fill="none" stroke="black" d="M1231,-852C1381.7,-852 1278.18,-566 1242.08,-476.47"/>
<polygon fill="black" stroke="black" points="1245.24,-474.95 1238.22,-467.02 1238.76,-477.6 1245.24,-474.95"/>
<text text-anchor="middle" x="1385" y="-742.8" font-family="Times,serif" font-size="14.00">on delete: CASCADE</text>
</g>
<!-- acme__user_address -->
<g id="node1" class="node">
<title>acme__user_address</title>
<polygon fill="#fcaf3e" stroke="transparent" points="687,-910 687,-931 906,-931 906,-910 687,-910"/>
<polygon fill="none" stroke="black" points="687,-910 687,-931 906,-931 906,-910 687,-910"/>
<text text-anchor="start" x="724.5" y="-916.8" font-family="Helvetica,sans-Serif" font-size="14.00" fill="#2e3436">acme__user_address</text>
<polygon fill="#eeeeec" stroke="transparent" points="687,-891 687,-910 835,-910 835,-891 687,-891"/>
<text text-anchor="start" x="689" y="-896.8" font-family="Helvetica,sans-Serif" font-size="14.00" fill="#2e3436">id</text>
<polygon fill="#eeeeec" stroke="transparent" points="835,-891 835,-910 889,-910 889,-891 835,-891"/>
<text text-anchor="start" x="837" y="-896.8" font-family="Helvetica,sans-Serif" font-size="14.00" fill="#2e3436">integer</text>
<polygon fill="#eeeeec" stroke="transparent" points="889,-891 889,-910 906,-910 906,-891 889,-891"/>
<text text-anchor="start" x="891" y="-896.8" font-family="Times,serif" font-size="14.00">✷</text>
<polygon fill="#eeeeec" stroke="transparent" points="687,-872 687,-891 835,-891 835,-872 687,-872"/>
<text text-anchor="start" x="689" y="-877.8" font-family="Helvetica,sans-Serif" font-size="14.00" fill="#2e3436">user_id</text>
<polygon fill="#eeeeec" stroke="transparent" points="835,-872 835,-891 889,-891 889,-872 835,-872"/>
<text text-anchor="start" x="837" y="-877.8" font-family="Helvetica,sans-Serif" font-size="14.00" fill="#2e3436">guid</text>
<polygon fill="#eeeeec" stroke="transparent" points="889,-872 889,-891 906,-891 906,-872 889,-872"/>
<polygon fill="#eeeeec" stroke="transparent" points="687,-853 687,-872 835,-872 835,-853 687,-853"/>
<text text-anchor="start" x="689" y="-858.8" font-family="Helvetica,sans-Serif" font-size="14.00" fill="#2e3436">position</text>
<polygon fill="#eeeeec" stroke="transparent" points="835,-853 835,-872 889,-872 889,-853 835,-853"/>
<text text-anchor="start" x="837" y="-858.8" font-family="Helvetica,sans-Serif" font-size="14.00" fill="#2e3436">integer</text>
<polygon fill="#eeeeec" stroke="transparent" points="889,-853 889,-872 906,-872 906,-853 889,-853"/>
<polygon fill="#eeeeec" stroke="transparent" points="687,-834 687,-853 835,-853 835,-834 687,-834"/>
<text text-anchor="start" x="689" y="-839.8" font-family="Helvetica,sans-Serif" font-size="14.00" fill="#2e3436">address_street</text>
<polygon fill="#eeeeec" stroke="transparent" points="835,-834 835,-853 889,-853 889,-834 835,-834"/>
<text text-anchor="start" x="837" y="-839.8" font-family="Helvetica,sans-Serif" font-size="14.00" fill="#2e3436">string</text>
<polygon fill="#eeeeec" stroke="transparent" points="889,-834 889,-853 906,-853 906,-834 889,-834"/>
<polygon fill="#eeeeec" stroke="transparent" points="687,-815 687,-834 835,-834 835,-815 687,-815"/>
<text text-anchor="start" x="689" y="-820.8" font-family="Helvetica,sans-Serif" font-size="14.00" fill="#2e3436">address_postal_code</text>
<polygon fill="#eeeeec" stroke="transparent" points="835,-815 835,-834 889,-834 889,-815 835,-815"/>
<text text-anchor="start" x="837" y="-820.8" font-family="Helvetica,sans-Serif" font-size="14.00" fill="#2e3436">string</text>
<polygon fill="#eeeeec" stroke="transparent" points="889,-815 889,-834 906,-834 906,-815 889,-815"/>
<polygon fill="#eeeeec" stroke="transparent" points="687,-796 687,-815 835,-815 835,-796 687,-796"/>
<text text-anchor="start" x="689" y="-801.8" font-family="Helvetica,sans-Serif" font-size="14.00" fill="#2e3436">address_city</text>
<polygon fill="#eeeeec" stroke="transparent" points="835,-796 835,-815 889,-815 889,-796 835,-796"/>
<text text-anchor="start" x="837" y="-801.8" font-family="Helvetica,sans-Serif" font-size="14.00" fill="#2e3436">string</text>
<polygon fill="#eeeeec" stroke="transparent" points="889,-796 889,-815 906,-815 906,-796 889,-796"/>
<polygon fill="#eeeeec" stroke="transparent" points="687,-777 687,-796 835,-796 835,-777 687,-777"/>
<text text-anchor="start" x="689" y="-782.8" font-family="Helvetica,sans-Serif" font-size="14.00" fill="#2e3436">address_country</text>
<polygon fill="#eeeeec" stroke="transparent" points="835,-777 835,-796 889,-796 889,-777 835,-777"/>
<text text-anchor="start" x="837" y="-782.8" font-family="Helvetica,sans-Serif" font-size="14.00" fill="#2e3436">string</text>
<polygon fill="#eeeeec" stroke="transparent" points="889,-777 889,-796 906,-796 906,-777 889,-777"/>
<polygon fill="none" stroke="black" points="685.5,-776 685.5,-932 906.5,-932 906.5,-776 685.5,-776"/>
</g>
<!-- acme__user_tag -->
<g id="node2" class="node">
<title>acme__user_tag</title>
<polygon fill="#fcaf3e" stroke="transparent" points="9,-872 9,-893 135,-893 135,-872 9,-872"/>
<polygon fill="none" stroke="black" points="9,-872 9,-893 135,-893 135,-872 9,-872"/>
<text text-anchor="start" x="16" y="-878.8" font-family="Helvetica,sans-Serif" font-size="14.00" fill="#2e3436">acme__user_tag</text>
<polygon fill="#eeeeec" stroke="transparent" points="9,-853 9,-872 64,-872 64,-853 9,-853"/>
<text text-anchor="start" x="11" y="-858.8" font-family="Helvetica,sans-Serif" font-size="14.00" fill="#2e3436">id</text>
<polygon fill="#eeeeec" stroke="transparent" points="64,-853 64,-872 118,-872 118,-853 64,-853"/>
<text text-anchor="start" x="66" y="-858.8" font-family="Helvetica,sans-Serif" font-size="14.00" fill="#2e3436">integer</text>
<polygon fill="#eeeeec" stroke="transparent" points="118,-853 118,-872 135,-872 135,-853 118,-853"/>
<text text-anchor="start" x="120" y="-858.8" font-family="Times,serif" font-size="14.00">✷</text>
<polygon fill="#eeeeec" stroke="transparent" points="9,-834 9,-853 64,-853 64,-834 9,-834"/>
<text text-anchor="start" x="11" y="-839.8" font-family="Helvetica,sans-Serif" font-size="14.00" fill="#2e3436">user_id</text>
<polygon fill="#eeeeec" stroke="transparent" points="64,-834 64,-853 118,-853 118,-834 64,-834"/>
<text text-anchor="start" x="66" y="-839.8" font-family="Helvetica,sans-Serif" font-size="14.00" fill="#2e3436">guid</text>
<polygon fill="#eeeeec" stroke="transparent" points="118,-834 118,-853 135,-853 135,-834 118,-834"/>
<polygon fill="#eeeeec" stroke="transparent" points="9,-815 9,-834 64,-834 64,-815 9,-815"/>
<text text-anchor="start" x="11" y="-820.8" font-family="Helvetica,sans-Serif" font-size="14.00" fill="#2e3436">tag_id</text>
<polygon fill="#eeeeec" stroke="transparent" points="64,-815 64,-834 118,-834 118,-815 64,-815"/>
<text text-anchor="start" x="66" y="-820.8" font-family="Helvetica,sans-Serif" font-size="14.00" fill="#2e3436">bigint</text>
<polygon fill="#eeeeec" stroke="transparent" points="118,-815 118,-834 135,-834 135,-815 118,-815"/>
<polygon fill="none" stroke="black" points="8,-814 8,-894 136,-894 136,-814 8,-814"/>
</g>
<!-- draw_acme__base_object -->
<g id="node3" class="node">
<title>draw_acme__base_object</title>
<polygon fill="#fcaf3e" stroke="transparent" points="346,-100 346,-121 664,-121 664,-100 346,-100"/>
<polygon fill="none" stroke="black" points="346,-100 346,-121 664,-121 664,-100 346,-100"/>
<text text-anchor="start" x="417.5" y="-106.8" font-family="Helvetica,sans-Serif" font-size="14.00" fill="#2e3436">draw_acme__base_object</text>
<polygon fill="#eeeeec" stroke="transparent" points="346,-81 346,-100 500,-100 500,-81 346,-81"/>
<text text-anchor="start" x="348" y="-86.8" font-family="Helvetica,sans-Serif" font-size="14.00" fill="#2e3436">id</text>
<polygon fill="#eeeeec" stroke="transparent" points="500,-81 500,-100 647,-100 647,-81 500,-81"/>
<text text-anchor="start" x="502" y="-86.8" font-family="Helvetica,sans-Serif" font-size="14.00" fill="#2e3436">integer</text>
<polygon fill="#eeeeec" stroke="transparent" points="647,-81 647,-100 664,-100 664,-81 647,-81"/>
<text text-anchor="start" x="649" y="-86.8" font-family="Times,serif" font-size="14.00">✷</text>
<polygon fill="#eeeeec" stroke="transparent" points="346,-62 346,-81 500,-81 500,-62 346,-62"/>
<text text-anchor="start" x="348" y="-67.8" font-family="Helvetica,sans-Serif" font-size="14.00" fill="#2e3436">discriminator_type</text>
<polygon fill="#eeeeec" stroke="transparent" points="500,-62 500,-81 647,-81 647,-62 500,-62"/>
<text text-anchor="start" x="502" y="-67.8" font-family="Helvetica,sans-Serif" font-size="14.00" fill="#2e3436">string</text>
<polygon fill="#eeeeec" stroke="transparent" points="647,-62 647,-81 664,-81 664,-62 647,-62"/>
<polygon fill="#eeeeec" stroke="transparent" points="346,-43 346,-62 500,-62 500,-43 346,-43"/>
<text text-anchor="start" x="348" y="-48.8" font-family="Helvetica,sans-Serif" font-size="14.00" fill="#2e3436">attribute_1</text>
<polygon fill="#eeeeec" stroke="transparent" points="500,-43 500,-62 647,-62 647,-43 500,-43"/>
<text text-anchor="start" x="502" y="-48.8" font-family="Helvetica,sans-Serif" font-size="14.00" fill="#2e3436">string</text>
<polygon fill="#eeeeec" stroke="transparent" points="647,-43 647,-62 664,-62 664,-43 647,-43"/>
<polygon fill="#eeeeec" stroke="transparent" points="346,-24 346,-43 500,-43 500,-24 346,-24"/>
<text text-anchor="start" x="348" y="-29.8" font-family="Helvetica,sans-Serif" font-size="14.00" fill="#2e3436">date_time_immutable</text>
<polygon fill="#eeeeec" stroke="transparent" points="500,-24 500,-43 647,-43 647,-24 500,-24"/>
<text text-anchor="start" x="502" y="-29.8" font-family="Helvetica,sans-Serif" font-size="14.00" fill="#2e3436">datetime_immutable</text>
<polygon fill="#eeeeec" stroke="transparent" points="647,-24 647,-43 664,-43 664,-24 647,-24"/>
<polygon fill="#eeeeec" stroke="transparent" points="346,-5 346,-24 500,-24 500,-5 346,-5"/>
<text text-anchor="start" x="348" y="-10.8" font-family="Helvetica,sans-Serif" font-size="14.00" fill="#2e3436">attribute_2</text>
<polygon fill="#eeeeec" stroke="transparent" points="500,-5 500,-24 647,-24 647,-5 500,-5"/>
<text text-anchor="start" x="502" y="-10.8" font-family="Helvetica,sans-Serif" font-size="14.00" fill="#2e3436">string</text>
<polygon fill="#eeeeec" stroke="transparent" points="647,-5 647,-24 664,-24 664,-5 647,-5"/>
<polygon fill="none" stroke="black" points="345,-4 345,-122 665,-122 665,-4 345,-4"/>
</g>
<!-- draw_acme__tag -->
<g id="node4" class="node">
<title>draw_acme__tag</title>
<polygon fill="#fcaf3e" stroke="transparent" points="10,-467 10,-488 132,-488 132,-467 10,-467"/>
<polygon fill="none" stroke="black" points="10,-467 10,-488 132,-488 132,-467 10,-467"/>
<text text-anchor="start" x="13.5" y="-473.8" font-family="Helvetica,sans-Serif" font-size="14.00" fill="#2e3436">draw_acme__tag</text>
<polygon fill="#eeeeec" stroke="transparent" points="10,-448 10,-467 56,-467 56,-448 10,-448"/>
<text text-anchor="start" x="12" y="-453.8" font-family="Helvetica,sans-Serif" font-size="14.00" fill="#2e3436">id</text>
<polygon fill="#eeeeec" stroke="transparent" points="56,-448 56,-467 115,-467 115,-448 56,-448"/>
<text text-anchor="start" x="58" y="-453.8" font-family="Helvetica,sans-Serif" font-size="14.00" fill="#2e3436">bigint</text>
<polygon fill="#eeeeec" stroke="transparent" points="115,-448 115,-467 132,-467 132,-448 115,-448"/>
<text text-anchor="start" x="117" y="-453.8" font-family="Times,serif" font-size="14.00">✷</text>
<polygon fill="#eeeeec" stroke="transparent" points="10,-429 10,-448 56,-448 56,-429 10,-429"/>
<text text-anchor="start" x="12" y="-434.8" font-family="Helvetica,sans-Serif" font-size="14.00" fill="#2e3436">name</text>
<polygon fill="#eeeeec" stroke="transparent" points="56,-429 56,-448 115,-448 115,-429 56,-429"/>
<text text-anchor="start" x="58" y="-434.8" font-family="Helvetica,sans-Serif" font-size="14.00" fill="#2e3436">string</text>
<polygon fill="#eeeeec" stroke="transparent" points="115,-429 115,-448 132,-448 132,-429 115,-429"/>
<polygon fill="#eeeeec" stroke="transparent" points="10,-410 10,-429 56,-429 56,-410 10,-410"/>
<text text-anchor="start" x="12" y="-415.8" font-family="Helvetica,sans-Serif" font-size="14.00" fill="#2e3436">active</text>
<polygon fill="#eeeeec" stroke="transparent" points="56,-410 56,-429 115,-429 115,-410 56,-410"/>
<text text-anchor="start" x="58" y="-415.8" font-family="Helvetica,sans-Serif" font-size="14.00" fill="#2e3436">boolean</text>
<polygon fill="#eeeeec" stroke="transparent" points="115,-410 115,-429 132,-429 132,-410 115,-410"/>
<polygon fill="none" stroke="black" points="9,-409 9,-489 133,-489 133,-409 9,-409"/>
</g>
<!-- draw_acme__user -->
<g id="node5" class="node">
<title>draw_acme__user</title>
<polygon fill="#fcaf3e" stroke="transparent" points="183,-695 183,-716 664,-716 664,-695 183,-695"/>
<polygon fill="none" stroke="black" points="183,-695 183,-716 664,-716 664,-695 183,-695"/>
<text text-anchor="start" x="361.5" y="-701.8" font-family="Helvetica,sans-Serif" font-size="14.00" fill="#2e3436">draw_acme__user</text>
<polygon fill="#eeeeec" stroke="transparent" points="183,-676 183,-695 500,-695 500,-676 183,-676"/>
<text text-anchor="start" x="185" y="-681.8" font-family="Helvetica,sans-Serif" font-size="14.00" fill="#2e3436">id</text>
<polygon fill="#eeeeec" stroke="transparent" points="500,-676 500,-695 647,-695 647,-676 500,-676"/>
<text text-anchor="start" x="502" y="-681.8" font-family="Helvetica,sans-Serif" font-size="14.00" fill="#2e3436">guid</text>
<polygon fill="#eeeeec" stroke="transparent" points="647,-676 647,-695 664,-695 664,-676 647,-676"/>
<text text-anchor="start" x="649" y="-681.8" font-family="Times,serif" font-size="14.00">✷</text>
<polygon fill="#eeeeec" stroke="transparent" points="183,-657 183,-676 500,-676 500,-657 183,-657"/>
<text text-anchor="start" x="185" y="-662.8" font-family="Helvetica,sans-Serif" font-size="14.00" fill="#2e3436">child_object1_id</text>
<polygon fill="#eeeeec" stroke="transparent" points="500,-657 500,-676 647,-676 647,-657 500,-657"/>
<text text-anchor="start" x="502" y="-662.8" font-family="Helvetica,sans-Serif" font-size="14.00" fill="#2e3436">integer</text>
<polygon fill="#eeeeec" stroke="transparent" points="647,-657 647,-676 664,-676 664,-657 647,-657"/>
<polygon fill="#eeeeec" stroke="transparent" points="183,-638 183,-657 500,-657 500,-638 183,-638"/>
<text text-anchor="start" x="185" y="-643.8" font-family="Helvetica,sans-Serif" font-size="14.00" fill="#2e3436">child_object2_id</text>
<polygon fill="#eeeeec" stroke="transparent" points="500,-638 500,-657 647,-657 647,-638 500,-638"/>
<text text-anchor="start" x="502" y="-643.8" font-family="Helvetica,sans-Serif" font-size="14.00" fill="#2e3436">integer</text>
<polygon fill="#eeeeec" stroke="transparent" points="647,-638 647,-657 664,-657 664,-638 647,-638"/>
<polygon fill="#eeeeec" stroke="transparent" points="183,-619 183,-638 500,-638 500,-619 183,-619"/>
<text text-anchor="start" x="185" y="-624.8" font-family="Helvetica,sans-Serif" font-size="14.00" fill="#2e3436">on_delete_restrict_id</text>
<polygon fill="#eeeeec" stroke="transparent" points="500,-619 500,-638 647,-638 647,-619 500,-619"/>
<text text-anchor="start" x="502" y="-624.8" font-family="Helvetica,sans-Serif" font-size="14.00" fill="#2e3436">integer</text>
<polygon fill="#eeeeec" stroke="transparent" points="647,-619 647,-638 664,-638 664,-619 647,-619"/>
<polygon fill="#eeeeec" stroke="transparent" points="183,-600 183,-619 500,-619 500,-600 183,-600"/>
<text text-anchor="start" x="185" y="-605.8" font-family="Helvetica,sans-Serif" font-size="14.00" fill="#2e3436">on_delete_cascade_id</text>
<polygon fill="#eeeeec" stroke="transparent" points="500,-600 500,-619 647,-619 647,-600 500,-600"/>
<text text-anchor="start" x="502" y="-605.8" font-family="Helvetica,sans-Serif" font-size="14.00" fill="#2e3436">integer</text>
<polygon fill="#eeeeec" stroke="transparent" points="647,-600 647,-619 664,-619 664,-600 647,-600"/>
<polygon fill="#eeeeec" stroke="transparent" points="183,-581 183,-600 500,-600 500,-581 183,-581"/>
<text text-anchor="start" x="185" y="-586.8" font-family="Helvetica,sans-Serif" font-size="14.00" fill="#2e3436">on_delete_set_null_id</text>
<polygon fill="#eeeeec" stroke="transparent" points="500,-581 500,-600 647,-600 647,-581 500,-581"/>
<text text-anchor="start" x="502" y="-586.8" font-family="Helvetica,sans-Serif" font-size="14.00" fill="#2e3436">integer</text>
<polygon fill="#eeeeec" stroke="transparent" points="647,-581 647,-600 664,-600 664,-581 647,-581"/>
<polygon fill="#eeeeec" stroke="transparent" points="183,-562 183,-581 500,-581 500,-562 183,-562"/>
<text text-anchor="start" x="185" y="-567.8" font-family="Helvetica,sans-Serif" font-size="14.00" fill="#2e3436">on_delete_cascade_config_overridden_id</text>
<polygon fill="#eeeeec" stroke="transparent" points="500,-562 500,-581 647,-581 647,-562 500,-562"/>
<text text-anchor="start" x="502" y="-567.8" font-family="Helvetica,sans-Serif" font-size="14.00" fill="#2e3436">integer</text>
<polygon fill="#eeeeec" stroke="transparent" points="647,-562 647,-581 664,-581 664,-562 647,-562"/>
<polygon fill="#eeeeec" stroke="transparent" points="183,-543 183,-562 500,-562 500,-543 183,-543"/>
<text text-anchor="start" x="185" y="-548.8" font-family="Helvetica,sans-Serif" font-size="14.00" fill="#2e3436">on_delete_cascade_attribute_overridden_id</text>
<polygon fill="#eeeeec" stroke="transparent" points="500,-543 500,-562 647,-562 647,-543 500,-543"/>
<text text-anchor="start" x="502" y="-548.8" font-family="Helvetica,sans-Serif" font-size="14.00" fill="#2e3436">integer</text>
<polygon fill="#eeeeec" stroke="transparent" points="647,-543 647,-562 664,-562 664,-543 647,-543"/>
<polygon fill="#eeeeec" stroke="transparent" points="183,-524 183,-543 500,-543 500,-524 183,-524"/>
<text text-anchor="start" x="185" y="-529.8" font-family="Helvetica,sans-Serif" font-size="14.00" fill="#2e3436">roles</text>
<polygon fill="#eeeeec" stroke="transparent" points="500,-524 500,-543 647,-543 647,-524 500,-524"/>
<text text-anchor="start" x="502" y="-529.8" font-family="Helvetica,sans-Serif" font-size="14.00" fill="#2e3436">json</text>
<polygon fill="#eeeeec" stroke="transparent" points="647,-524 647,-543 664,-543 664,-524 647,-524"/>
<polygon fill="#eeeeec" stroke="transparent" points="183,-505 183,-524 500,-524 500,-505 183,-505"/>
<text text-anchor="start" x="185" y="-510.8" font-family="Helvetica,sans-Serif" font-size="14.00" fill="#2e3436">level</text>
<polygon fill="#eeeeec" stroke="transparent" points="500,-505 500,-524 647,-524 647,-505 500,-505"/>
<text text-anchor="start" x="502" y="-510.8" font-family="Helvetica,sans-Serif" font-size="14.00" fill="#2e3436">string</text>
<polygon fill="#eeeeec" stroke="transparent" points="647,-505 647,-524 664,-524 664,-505 647,-505"/>
<polygon fill="#eeeeec" stroke="transparent" points="183,-486 183,-505 500,-505 500,-486 183,-486"/>
<text text-anchor="start" x="185" y="-491.8" font-family="Helvetica,sans-Serif" font-size="14.00" fill="#2e3436">date_of_birth</text>
<polygon fill="#eeeeec" stroke="transparent" points="500,-486 500,-505 647,-505 647,-486 500,-486"/>
<text text-anchor="start" x="502" y="-491.8" font-family="Helvetica,sans-Serif" font-size="14.00" fill="#2e3436">datetime_immutable</text>
<polygon fill="#eeeeec" stroke="transparent" points="647,-486 647,-505 664,-505 664,-486 647,-486"/>
<polygon fill="#eeeeec" stroke="transparent" points="183,-467 183,-486 500,-486 500,-467 183,-467"/>
<text text-anchor="start" x="185" y="-472.8" font-family="Helvetica,sans-Serif" font-size="14.00" fill="#2e3436">comment</text>
<polygon fill="#eeeeec" stroke="transparent" points="500,-467 500,-486 647,-486 647,-467 500,-467"/>
<text text-anchor="start" x="502" y="-472.8" font-family="Helvetica,sans-Serif" font-size="14.00" fill="#2e3436">text</text>
<polygon fill="#eeeeec" stroke="transparent" points="647,-467 647,-486 664,-486 664,-467 647,-467"/>
<polygon fill="#eeeeec" stroke="transparent" points="183,-448 183,-467 500,-467 500,-448 183,-448"/>
<text text-anchor="start" x="185" y="-453.8" font-family="Helvetica,sans-Serif" font-size="14.00" fill="#2e3436">preferred_locale</text>
<polygon fill="#eeeeec" stroke="transparent" points="500,-448 500,-467 647,-467 647,-448 500,-448"/>
<text text-anchor="start" x="502" y="-453.8" font-family="Helvetica,sans-Serif" font-size="14.00" fill="#2e3436">string</text>
<polygon fill="#eeeeec" stroke="transparent" points="647,-448 647,-467 664,-467 664,-448 647,-448"/>
<polygon fill="#eeeeec" stroke="transparent" points="183,-429 183,-448 500,-448 500,-429 183,-429"/>
<text text-anchor="start" x="185" y="-434.8" font-family="Helvetica,sans-Serif" font-size="14.00" fill="#2e3436">email_auth_code</text>
<polygon fill="#eeeeec" stroke="transparent" points="500,-429 500,-448 647,-448 647,-429 500,-429"/>
<text text-anchor="start" x="502" y="-434.8" font-family="Helvetica,sans-Serif" font-size="14.00" fill="#2e3436">string</text>
<polygon fill="#eeeeec" stroke="transparent" points="647,-429 647,-448 664,-448 664,-429 647,-429"/>
<polygon fill="#eeeeec" stroke="transparent" points="183,-410 183,-429 500,-429 500,-410 183,-410"/>
<text text-anchor="start" x="185" y="-415.8" font-family="Helvetica,sans-Serif" font-size="14.00" fill="#2e3436">email_auth_code_generated_at</text>
<polygon fill="#eeeeec" stroke="transparent" points="500,-410 500,-429 647,-429 647,-410 500,-410"/>
<text text-anchor="start" x="502" y="-415.8" font-family="Helvetica,sans-Serif" font-size="14.00" fill="#2e3436">datetime_immutable</text>
<polygon fill="#eeeeec" stroke="transparent" points="647,-410 647,-429 664,-429 664,-410 647,-410"/>
<polygon fill="#eeeeec" stroke="transparent" points="183,-391 183,-410 500,-410 500,-391 183,-391"/>
<text text-anchor="start" x="185" y="-396.8" font-family="Helvetica,sans-Serif" font-size="14.00" fill="#2e3436">two_factor_authentication_enabled_providers</text>
<polygon fill="#eeeeec" stroke="transparent" points="500,-391 500,-410 647,-410 647,-391 500,-391"/>
<text text-anchor="start" x="502" y="-396.8" font-family="Helvetica,sans-Serif" font-size="14.00" fill="#2e3436">json</text>
<polygon fill="#eeeeec" stroke="transparent" points="647,-391 647,-410 664,-410 664,-391 647,-391"/>
<polygon fill="#eeeeec" stroke="transparent" points="183,-372 183,-391 500,-391 500,-372 183,-372"/>
<text text-anchor="start" x="185" y="-377.8" font-family="Helvetica,sans-Serif" font-size="14.00" fill="#2e3436">force_enabling_two_factor_authentication</text>
<polygon fill="#eeeeec" stroke="transparent" points="500,-372 500,-391 647,-391 647,-372 500,-372"/>
<text text-anchor="start" x="502" y="-377.8" font-family="Helvetica,sans-Serif" font-size="14.00" fill="#2e3436">boolean</text>
<polygon fill="#eeeeec" stroke="transparent" points="647,-372 647,-391 664,-391 664,-372 647,-372"/>
<polygon fill="#eeeeec" stroke="transparent" points="183,-353 183,-372 500,-372 500,-353 183,-353"/>
<text text-anchor="start" x="185" y="-358.8" font-family="Helvetica,sans-Serif" font-size="14.00" fill="#2e3436">totp_secret</text>
<polygon fill="#eeeeec" stroke="transparent" points="500,-353 500,-372 647,-372 647,-353 500,-353"/>
<text text-anchor="start" x="502" y="-358.8" font-family="Helvetica,sans-Serif" font-size="14.00" fill="#2e3436">string</text>
<polygon fill="#eeeeec" stroke="transparent" points="647,-353 647,-372 664,-372 664,-353 647,-353"/>
<polygon fill="#eeeeec" stroke="transparent" points="183,-334 183,-353 500,-353 500,-334 183,-334"/>
<text text-anchor="start" x="185" y="-339.8" font-family="Helvetica,sans-Serif" font-size="14.00" fill="#2e3436">manual_lock</text>
<polygon fill="#eeeeec" stroke="transparent" points="500,-334 500,-353 647,-353 647,-334 500,-334"/>
<text text-anchor="start" x="502" y="-339.8" font-family="Helvetica,sans-Serif" font-size="14.00" fill="#2e3436">boolean</text>
<polygon fill="#eeeeec" stroke="transparent" points="647,-334 647,-353 664,-353 664,-334 647,-334"/>
<polygon fill="#eeeeec" stroke="transparent" points="183,-315 183,-334 500,-334 500,-315 183,-315"/>
<text text-anchor="start" x="185" y="-320.8" font-family="Helvetica,sans-Serif" font-size="14.00" fill="#2e3436">need_change_password</text>
<polygon fill="#eeeeec" stroke="transparent" points="500,-315 500,-334 647,-334 647,-315 500,-315"/>
<text text-anchor="start" x="502" y="-320.8" font-family="Helvetica,sans-Serif" font-size="14.00" fill="#2e3436">boolean</text>
<polygon fill="#eeeeec" stroke="transparent" points="647,-315 647,-334 664,-334 664,-315 647,-315"/>
<polygon fill="#eeeeec" stroke="transparent" points="183,-296 183,-315 500,-315 500,-296 183,-296"/>
<text text-anchor="start" x="185" y="-301.8" font-family="Helvetica,sans-Serif" font-size="14.00" fill="#2e3436">email</text>
<polygon fill="#eeeeec" stroke="transparent" points="500,-296 500,-315 647,-315 647,-296 500,-296"/>
<text text-anchor="start" x="502" y="-301.8" font-family="Helvetica,sans-Serif" font-size="14.00" fill="#2e3436">string</text>
<polygon fill="#eeeeec" stroke="transparent" points="647,-296 647,-315 664,-315 664,-296 647,-296"/>
<polygon fill="#eeeeec" stroke="transparent" points="183,-277 183,-296 500,-296 500,-277 183,-277"/>
<text text-anchor="start" x="185" y="-282.8" font-family="Helvetica,sans-Serif" font-size="14.00" fill="#2e3436">password</text>
<polygon fill="#eeeeec" stroke="transparent" points="500,-277 500,-296 647,-296 647,-277 500,-277"/>
<text text-anchor="start" x="502" y="-282.8" font-family="Helvetica,sans-Serif" font-size="14.00" fill="#2e3436">string</text>
<polygon fill="#eeeeec" stroke="transparent" points="647,-277 647,-296 664,-296 664,-277 647,-277"/>
<polygon fill="#eeeeec" stroke="transparent" points="183,-258 183,-277 500,-277 500,-258 183,-258"/>
<text text-anchor="start" x="185" y="-263.8" font-family="Helvetica,sans-Serif" font-size="14.00" fill="#2e3436">last_password_updated_at</text>
<polygon fill="#eeeeec" stroke="transparent" points="500,-258 500,-277 647,-277 647,-258 500,-258"/>
<text text-anchor="start" x="502" y="-263.8" font-family="Helvetica,sans-Serif" font-size="14.00" fill="#2e3436">datetime_immutable</text>
<polygon fill="#eeeeec" stroke="transparent" points="647,-258 647,-277 664,-277 664,-258 647,-258"/>
<polygon fill="#eeeeec" stroke="transparent" points="183,-239 183,-258 500,-258 500,-239 183,-239"/>
<text text-anchor="start" x="185" y="-244.8" font-family="Helvetica,sans-Serif" font-size="14.00" fill="#2e3436">address_street</text>
<polygon fill="#eeeeec" stroke="transparent" points="500,-239 500,-258 647,-258 647,-239 500,-239"/>
<text text-anchor="start" x="502" y="-244.8" font-family="Helvetica,sans-Serif" font-size="14.00" fill="#2e3436">string</text>
<polygon fill="#eeeeec" stroke="transparent" points="647,-239 647,-258 664,-258 664,-239 647,-239"/>
<polygon fill="#eeeeec" stroke="transparent" points="183,-220 183,-239 500,-239 500,-220 183,-220"/>
<text text-anchor="start" x="185" y="-225.8" font-family="Helvetica,sans-Serif" font-size="14.00" fill="#2e3436">address_postal_code</text>
<polygon fill="#eeeeec" stroke="transparent" points="500,-220 500,-239 647,-239 647,-220 500,-220"/>
<text text-anchor="start" x="502" y="-225.8" font-family="Helvetica,sans-Serif" font-size="14.00" fill="#2e3436">string</text>
<polygon fill="#eeeeec" stroke="transparent" points="647,-220 647,-239 664,-239 664,-220 647,-220"/>
<polygon fill="#eeeeec" stroke="transparent" points="183,-201 183,-220 500,-220 500,-201 183,-201"/>
<text text-anchor="start" x="185" y="-206.8" font-family="Helvetica,sans-Serif" font-size="14.00" fill="#2e3436">address_city</text>
<polygon fill="#eeeeec" stroke="transparent" points="500,-201 500,-220 647,-220 647,-201 500,-201"/>
<text text-anchor="start" x="502" y="-206.8" font-family="Helvetica,sans-Serif" font-size="14.00" fill="#2e3436">string</text>
<polygon fill="#eeeeec" stroke="transparent" points="647,-201 647,-220 664,-220 664,-201 647,-201"/>
<polygon fill="#eeeeec" stroke="transparent" points="183,-182 183,-201 500,-201 500,-182 183,-182"/>
<text text-anchor="start" x="185" y="-187.8" font-family="Helvetica,sans-Serif" font-size="14.00" fill="#2e3436">address_country</text>
<polygon fill="#eeeeec" stroke="transparent" points="500,-182 500,-201 647,-201 647,-182 500,-182"/>
<text text-anchor="start" x="502" y="-187.8" font-family="Helvetica,sans-Serif" font-size="14.00" fill="#2e3436">string</text>
<polygon fill="#eeeeec" stroke="transparent" points="647,-182 647,-201 664,-201 664,-182 647,-182"/>
<polygon fill="none" stroke="black" points="181.5,-181 181.5,-717 664.5,-717 664.5,-181 181.5,-181"/>
</g>
<!-- user_tag -->
<g id="node6" class="node">
<title>user_tag</title>
<polygon fill="#fcaf3e" stroke="transparent" points="219,-862 219,-883 335,-883 335,-862 219,-862"/>
<polygon fill="none" stroke="black" points="219,-862 219,-883 335,-883 335,-862 219,-862"/>
<text text-anchor="start" x="246.5" y="-868.8" font-family="Helvetica,sans-Serif" font-size="14.00" fill="#2e3436">user_tag</text>
<polygon fill="#eeeeec" stroke="transparent" points="219,-843 219,-862 274,-862 274,-843 219,-843"/>
<text text-anchor="start" x="221" y="-848.8" font-family="Helvetica,sans-Serif" font-size="14.00" fill="#2e3436">user_id</text>
<polygon fill="#eeeeec" stroke="transparent" points="274,-843 274,-862 318,-862 318,-843 274,-843"/>
<text text-anchor="start" x="276" y="-848.8" font-family="Helvetica,sans-Serif" font-size="14.00" fill="#2e3436">guid</text>
<polygon fill="#eeeeec" stroke="transparent" points="318,-843 318,-862 335,-862 335,-843 318,-843"/>
<text text-anchor="start" x="320" y="-848.8" font-family="Times,serif" font-size="14.00">✷</text>
<polygon fill="#eeeeec" stroke="transparent" points="219,-824 219,-843 274,-843 274,-824 219,-824"/>
<text text-anchor="start" x="221" y="-829.8" font-family="Helvetica,sans-Serif" font-size="14.00" fill="#2e3436">tag_id</text>
<polygon fill="#eeeeec" stroke="transparent" points="274,-824 274,-843 318,-843 318,-824 274,-824"/>
<text text-anchor="start" x="276" y="-829.8" font-family="Helvetica,sans-Serif" font-size="14.00" fill="#2e3436">bigint</text>
<polygon fill="#eeeeec" stroke="transparent" points="318,-824 318,-843 335,-843 335,-824 318,-824"/>
<text text-anchor="start" x="320" y="-829.8" font-family="Times,serif" font-size="14.00">✷</text>
<polygon fill="none" stroke="black" points="218,-823.5 218,-884.5 336,-884.5 336,-823.5 218,-823.5"/>
</g>
<!-- draw_user__user_lock -->
<g id="node7" class="node">
<title>draw_user__user_lock</title>
<polygon fill="#fcaf3e" stroke="transparent" points="398,-910 398,-931 650,-931 650,-910 398,-910"/>
<polygon fill="none" stroke="black" points="398,-910 398,-931 650,-931 650,-910 398,-910"/>
<text text-anchor="start" x="448.5" y="-916.8" font-family="Helvetica,sans-Serif" font-size="14.00" fill="#2e3436">draw_user__user_lock</text>
<polygon fill="#eeeeec" stroke="transparent" points="398,-891 398,-910 486,-910 486,-891 398,-891"/>
<text text-anchor="start" x="400" y="-896.8" font-family="Helvetica,sans-Serif" font-size="14.00" fill="#2e3436">id</text>
<polygon fill="#eeeeec" stroke="transparent" points="486,-891 486,-910 633,-910 633,-891 486,-891"/>
<text text-anchor="start" x="488" y="-896.8" font-family="Helvetica,sans-Serif" font-size="14.00" fill="#2e3436">guid</text>
<polygon fill="#eeeeec" stroke="transparent" points="633,-891 633,-910 650,-910 650,-891 633,-891"/>
<text text-anchor="start" x="635" y="-896.8" font-family="Times,serif" font-size="14.00">✷</text>
<polygon fill="#eeeeec" stroke="transparent" points="398,-872 398,-891 486,-891 486,-872 398,-872"/>
<text text-anchor="start" x="400" y="-877.8" font-family="Helvetica,sans-Serif" font-size="14.00" fill="#2e3436">user_id</text>
<polygon fill="#eeeeec" stroke="transparent" points="486,-872 486,-891 633,-891 633,-872 486,-872"/>
<text text-anchor="start" x="488" y="-877.8" font-family="Helvetica,sans-Serif" font-size="14.00" fill="#2e3436">guid</text>
<polygon fill="#eeeeec" stroke="transparent" points="633,-872 633,-891 650,-891 650,-872 633,-872"/>
<polygon fill="#eeeeec" stroke="transparent" points="398,-853 398,-872 486,-872 486,-853 398,-853"/>
<text text-anchor="start" x="400" y="-858.8" font-family="Helvetica,sans-Serif" font-size="14.00" fill="#2e3436">reason</text>
<polygon fill="#eeeeec" stroke="transparent" points="486,-853 486,-872 633,-872 633,-853 486,-853"/>
<text text-anchor="start" x="488" y="-858.8" font-family="Helvetica,sans-Serif" font-size="14.00" fill="#2e3436">string</text>
<polygon fill="#eeeeec" stroke="transparent" points="633,-853 633,-872 650,-872 650,-853 633,-853"/>
<polygon fill="#eeeeec" stroke="transparent" points="398,-834 398,-853 486,-853 486,-834 398,-834"/>
<text text-anchor="start" x="400" y="-839.8" font-family="Helvetica,sans-Serif" font-size="14.00" fill="#2e3436">created_at</text>
<polygon fill="#eeeeec" stroke="transparent" points="486,-834 486,-853 633,-853 633,-834 486,-834"/>
<text text-anchor="start" x="488" y="-839.8" font-family="Helvetica,sans-Serif" font-size="14.00" fill="#2e3436">datetime_immutable</text>
<polygon fill="#eeeeec" stroke="transparent" points="633,-834 633,-853 650,-853 650,-834 633,-834"/>
<polygon fill="#eeeeec" stroke="transparent" points="398,-815 398,-834 486,-834 486,-815 398,-815"/>
<text text-anchor="start" x="400" y="-820.8" font-family="Helvetica,sans-Serif" font-size="14.00" fill="#2e3436">lock_on</text>
<polygon fill="#eeeeec" stroke="transparent" points="486,-815 486,-834 633,-834 633,-815 486,-815"/>
<text text-anchor="start" x="488" y="-820.8" font-family="Helvetica,sans-Serif" font-size="14.00" fill="#2e3436">datetime_immutable</text>
<polygon fill="#eeeeec" stroke="transparent" points="633,-815 633,-834 650,-834 650,-815 633,-815"/>
<polygon fill="#eeeeec" stroke="transparent" points="398,-796 398,-815 486,-815 486,-796 398,-796"/>
<text text-anchor="start" x="400" y="-801.8" font-family="Helvetica,sans-Serif" font-size="14.00" fill="#2e3436">expires_at</text>
<polygon fill="#eeeeec" stroke="transparent" points="486,-796 486,-815 633,-815 633,-796 486,-796"/>
<text text-anchor="start" x="488" y="-801.8" font-family="Helvetica,sans-Serif" font-size="14.00" fill="#2e3436">datetime_immutable</text>
<polygon fill="#eeeeec" stroke="transparent" points="633,-796 633,-815 650,-815 650,-796 633,-796"/>
<polygon fill="#eeeeec" stroke="transparent" points="398,-777 398,-796 486,-796 486,-777 398,-777"/>
<text text-anchor="start" x="400" y="-782.8" font-family="Helvetica,sans-Serif" font-size="14.00" fill="#2e3436">unlock_until</text>
<polygon fill="#eeeeec" stroke="transparent" points="486,-777 486,-796 633,-796 633,-777 486,-777"/>
<text text-anchor="start" x="488" y="-782.8" font-family="Helvetica,sans-Serif" font-size="14.00" fill="#2e3436">datetime_immutable</text>
<polygon fill="#eeeeec" stroke="transparent" points="633,-777 633,-796 650,-796 650,-777 633,-777"/>
<polygon fill="none" stroke="black" points="397,-776 397,-932 651,-932 651,-776 397,-776"/>
</g>
<!-- user_migration -->
<g id="node8" class="node">
<title>user_migration</title>
<polygon fill="#fcaf3e" stroke="transparent" points="960,-900 960,-921 1230,-921 1230,-900 960,-900"/>
<polygon fill="none" stroke="black" points="960,-900 960,-921 1230,-921 1230,-900 960,-900"/>
<text text-anchor="start" x="1042.5" y="-906.8" font-family="Helvetica,sans-Serif" font-size="14.00" fill="#2e3436">user_migration</text>
<polygon fill="#eeeeec" stroke="transparent" points="960,-881 960,-900 1066,-900 1066,-881 960,-881"/>
<text text-anchor="start" x="962" y="-886.8" font-family="Helvetica,sans-Serif" font-size="14.00" fill="#2e3436">id</text>
<polygon fill="#eeeeec" stroke="transparent" points="1066,-881 1066,-900 1213,-900 1213,-881 1066,-881"/>
<text text-anchor="start" x="1068" y="-886.8" font-family="Helvetica,sans-Serif" font-size="14.00" fill="#2e3436">bigint</text>
<polygon fill="#eeeeec" stroke="transparent" points="1213,-881 1213,-900 1230,-900 1230,-881 1213,-881"/>
<text text-anchor="start" x="1215" y="-886.8" font-family="Times,serif" font-size="14.00">✷</text>
<polygon fill="#eeeeec" stroke="transparent" points="960,-862 960,-881 1066,-881 1066,-862 960,-862"/>
<text text-anchor="start" x="962" y="-867.8" font-family="Helvetica,sans-Serif" font-size="14.00" fill="#2e3436">entity_id</text>
<polygon fill="#eeeeec" stroke="transparent" points="1066,-862 1066,-881 1213,-881 1213,-862 1066,-862"/>
<text text-anchor="start" x="1068" y="-867.8" font-family="Helvetica,sans-Serif" font-size="14.00" fill="#2e3436">guid</text>
<polygon fill="#eeeeec" stroke="transparent" points="1213,-862 1213,-881 1230,-881 1230,-862 1213,-862"/>
<polygon fill="#eeeeec" stroke="transparent" points="960,-843 960,-862 1066,-862 1066,-843 960,-843"/>
<text text-anchor="start" x="962" y="-848.8" font-family="Helvetica,sans-Serif" font-size="14.00" fill="#2e3436">migration_id</text>
<polygon fill="#eeeeec" stroke="transparent" points="1066,-843 1066,-862 1213,-862 1213,-843 1066,-843"/>
<text text-anchor="start" x="1068" y="-848.8" font-family="Helvetica,sans-Serif" font-size="14.00" fill="#2e3436">integer</text>
<polygon fill="#eeeeec" stroke="transparent" points="1213,-843 1213,-862 1230,-862 1230,-843 1213,-843"/>
<polygon fill="#eeeeec" stroke="transparent" points="960,-824 960,-843 1066,-843 1066,-824 960,-824"/>
<text text-anchor="start" x="962" y="-829.8" font-family="Helvetica,sans-Serif" font-size="14.00" fill="#2e3436">state</text>
<polygon fill="#eeeeec" stroke="transparent" points="1066,-824 1066,-843 1213,-843 1213,-824 1066,-824"/>
<text text-anchor="start" x="1068" y="-829.8" font-family="Helvetica,sans-Serif" font-size="14.00" fill="#2e3436">string</text>
<polygon fill="#eeeeec" stroke="transparent" points="1213,-824 1213,-843 1230,-843 1230,-824 1213,-824"/>
<polygon fill="#eeeeec" stroke="transparent" points="960,-805 960,-824 1066,-824 1066,-805 960,-805"/>
<text text-anchor="start" x="962" y="-810.8" font-family="Helvetica,sans-Serif" font-size="14.00" fill="#2e3436">transition_logs</text>
<polygon fill="#eeeeec" stroke="transparent" points="1066,-805 1066,-824 1213,-824 1213,-805 1066,-805"/>
<text text-anchor="start" x="1068" y="-810.8" font-family="Helvetica,sans-Serif" font-size="14.00" fill="#2e3436">json</text>
<polygon fill="#eeeeec" stroke="transparent" points="1213,-805 1213,-824 1230,-824 1230,-805 1213,-805"/>
<polygon fill="#eeeeec" stroke="transparent" points="960,-786 960,-805 1066,-805 1066,-786 960,-786"/>
<text text-anchor="start" x="962" y="-791.8" font-family="Helvetica,sans-Serif" font-size="14.00" fill="#2e3436">created_at</text>
<polygon fill="#eeeeec" stroke="transparent" points="1066,-786 1066,-805 1213,-805 1213,-786 1066,-786"/>
<text text-anchor="start" x="1068" y="-791.8" font-family="Helvetica,sans-Serif" font-size="14.00" fill="#2e3436">datetime_immutable</text>
<polygon fill="#eeeeec" stroke="transparent" points="1213,-786 1213,-805 1230,-805 1230,-786 1213,-786"/>
<polygon fill="none" stroke="black" points="959,-785.5 959,-922.5 1231,-922.5 1231,-785.5 959,-785.5"/>
</g>
<!-- draw_entity_migrator__migration -->
<g id="node9" class="node">
<title>draw_entity_migrator__migration</title>
<ellipse fill="none" stroke="black" cx="1231" cy="-449" rx="165.17" ry="18"/>
<text text-anchor="middle" x="1231" y="-445.3" font-family="Times,serif" font-size="14.00">draw_entity_migrator__migration</text>
</g>
</g>
</svg>
